%TF.GenerationSoftware,KiCad,Pcbnew,8.0.8*%
%TF.CreationDate,2025-07-01T22:14:08-04:00*%
%TF.ProjectId,Power Supply,506f7765-7220-4537-9570-706c792e6b69,rev?*%
%TF.SameCoordinates,Original*%
%TF.FileFunction,Copper,L1,Top*%
%TF.FilePolarity,Positive*%
%FSLAX46Y46*%
G04 Gerber Fmt 4.6, Leading zero omitted, Abs format (unit mm)*
G04 Created by KiCad (PCBNEW 8.0.8) date 2025-07-01 22:14:08*
%MOMM*%
%LPD*%
G01*
G04 APERTURE LIST*
G04 Aperture macros list*
%AMRoundRect*
0 Rectangle with rounded corners*
0 $1 Rounding radius*
0 $2 $3 $4 $5 $6 $7 $8 $9 X,Y pos of 4 corners*
0 Add a 4 corners polygon primitive as box body*
4,1,4,$2,$3,$4,$5,$6,$7,$8,$9,$2,$3,0*
0 Add four circle primitives for the rounded corners*
1,1,$1+$1,$2,$3*
1,1,$1+$1,$4,$5*
1,1,$1+$1,$6,$7*
1,1,$1+$1,$8,$9*
0 Add four rect primitives between the rounded corners*
20,1,$1+$1,$2,$3,$4,$5,0*
20,1,$1+$1,$4,$5,$6,$7,0*
20,1,$1+$1,$6,$7,$8,$9,0*
20,1,$1+$1,$8,$9,$2,$3,0*%
G04 Aperture macros list end*
%TA.AperFunction,ComponentPad*%
%ADD10C,1.600000*%
%TD*%
%TA.AperFunction,SMDPad,CuDef*%
%ADD11RoundRect,0.250000X-0.412500X-0.650000X0.412500X-0.650000X0.412500X0.650000X-0.412500X0.650000X0*%
%TD*%
%TA.AperFunction,ComponentPad*%
%ADD12R,2.000000X1.905000*%
%TD*%
%TA.AperFunction,ComponentPad*%
%ADD13O,2.000000X1.905000*%
%TD*%
%TA.AperFunction,ComponentPad*%
%ADD14R,2.200000X2.200000*%
%TD*%
%TA.AperFunction,ComponentPad*%
%ADD15O,2.200000X2.200000*%
%TD*%
%TA.AperFunction,ComponentPad*%
%ADD16R,1.600000X1.600000*%
%TD*%
%TA.AperFunction,SMDPad,CuDef*%
%ADD17RoundRect,0.250000X0.412500X0.650000X-0.412500X0.650000X-0.412500X-0.650000X0.412500X-0.650000X0*%
%TD*%
%TA.AperFunction,ComponentPad*%
%ADD18C,4.000000*%
%TD*%
%TA.AperFunction,ComponentPad*%
%ADD19C,2.000000*%
%TD*%
%TA.AperFunction,ComponentPad*%
%ADD20O,1.600000X1.600000*%
%TD*%
%TA.AperFunction,ComponentPad*%
%ADD21C,0.900000*%
%TD*%
%TA.AperFunction,ComponentPad*%
%ADD22C,11.000000*%
%TD*%
%TA.AperFunction,ComponentPad*%
%ADD23RoundRect,0.250000X1.330000X1.800000X-1.330000X1.800000X-1.330000X-1.800000X1.330000X-1.800000X0*%
%TD*%
%TA.AperFunction,ComponentPad*%
%ADD24O,3.160000X4.100000*%
%TD*%
%TA.AperFunction,SMDPad,CuDef*%
%ADD25RoundRect,0.249999X2.450001X-0.737501X2.450001X0.737501X-2.450001X0.737501X-2.450001X-0.737501X0*%
%TD*%
%TA.AperFunction,SMDPad,CuDef*%
%ADD26RoundRect,0.250000X-0.400000X-0.625000X0.400000X-0.625000X0.400000X0.625000X-0.400000X0.625000X0*%
%TD*%
%TA.AperFunction,ComponentPad*%
%ADD27R,4.000000X4.000000*%
%TD*%
%TA.AperFunction,SMDPad,CuDef*%
%ADD28RoundRect,0.250000X0.400000X0.625000X-0.400000X0.625000X-0.400000X-0.625000X0.400000X-0.625000X0*%
%TD*%
%TA.AperFunction,ComponentPad*%
%ADD29R,1.500000X1.050000*%
%TD*%
%TA.AperFunction,ComponentPad*%
%ADD30O,1.500000X1.050000*%
%TD*%
%TA.AperFunction,ComponentPad*%
%ADD31C,2.400000*%
%TD*%
%TA.AperFunction,ComponentPad*%
%ADD32O,2.400000X2.400000*%
%TD*%
%TA.AperFunction,ComponentPad*%
%ADD33R,2.400000X2.400000*%
%TD*%
%TA.AperFunction,SMDPad,CuDef*%
%ADD34RoundRect,0.100000X-0.687500X-0.100000X0.687500X-0.100000X0.687500X0.100000X-0.687500X0.100000X0*%
%TD*%
%TA.AperFunction,HeatsinkPad*%
%ADD35R,3.400000X5.000000*%
%TD*%
%TA.AperFunction,ComponentPad*%
%ADD36R,2.000000X2.000000*%
%TD*%
%TA.AperFunction,ComponentPad*%
%ADD37RoundRect,0.250000X1.800000X-1.330000X1.800000X1.330000X-1.800000X1.330000X-1.800000X-1.330000X0*%
%TD*%
%TA.AperFunction,ComponentPad*%
%ADD38O,4.100000X3.160000*%
%TD*%
%TA.AperFunction,ComponentPad*%
%ADD39C,2.800000*%
%TD*%
%TA.AperFunction,SMDPad,CuDef*%
%ADD40R,5.511800X3.860800*%
%TD*%
%TA.AperFunction,SMDPad,CuDef*%
%ADD41RoundRect,0.650000X0.650000X0.950000X-0.650000X0.950000X-0.650000X-0.950000X0.650000X-0.950000X0*%
%TD*%
%TA.AperFunction,SMDPad,CuDef*%
%ADD42RoundRect,0.250000X-1.400000X-1.000000X1.400000X-1.000000X1.400000X1.000000X-1.400000X1.000000X0*%
%TD*%
%TA.AperFunction,SMDPad,CuDef*%
%ADD43RoundRect,0.250000X-0.875000X-1.025000X0.875000X-1.025000X0.875000X1.025000X-0.875000X1.025000X0*%
%TD*%
%TA.AperFunction,ComponentPad*%
%ADD44C,1.803400*%
%TD*%
%TA.AperFunction,SMDPad,CuDef*%
%ADD45R,0.610000X1.270000*%
%TD*%
%TA.AperFunction,SMDPad,CuDef*%
%ADD46R,3.910000X3.810000*%
%TD*%
%TA.AperFunction,SMDPad,CuDef*%
%ADD47R,0.610000X1.020000*%
%TD*%
%TA.AperFunction,SMDPad,CuDef*%
%ADD48R,4.000000X5.180000*%
%TD*%
%TA.AperFunction,ComponentPad*%
%ADD49C,3.000000*%
%TD*%
%TA.AperFunction,SMDPad,CuDef*%
%ADD50R,5.180000X4.000000*%
%TD*%
%TA.AperFunction,ComponentPad*%
%ADD51C,14.000000*%
%TD*%
%TA.AperFunction,SMDPad,CuDef*%
%ADD52RoundRect,0.125000X-0.600000X-0.125000X0.600000X-0.125000X0.600000X0.125000X-0.600000X0.125000X0*%
%TD*%
%TA.AperFunction,HeatsinkPad*%
%ADD53C,0.600000*%
%TD*%
%TA.AperFunction,HeatsinkPad*%
%ADD54R,1.570000X1.890000*%
%TD*%
%TA.AperFunction,SMDPad,CuDef*%
%ADD55RoundRect,0.249999X-1.425001X0.450001X-1.425001X-0.450001X1.425001X-0.450001X1.425001X0.450001X0*%
%TD*%
%TA.AperFunction,SMDPad,CuDef*%
%ADD56RoundRect,0.196000X-0.784000X-1.379000X0.784000X-1.379000X0.784000X1.379000X-0.784000X1.379000X0*%
%TD*%
%TA.AperFunction,ComponentPad*%
%ADD57RoundRect,0.250000X-1.330000X-1.800000X1.330000X-1.800000X1.330000X1.800000X-1.330000X1.800000X0*%
%TD*%
%TA.AperFunction,ComponentPad*%
%ADD58C,1.800000*%
%TD*%
%TA.AperFunction,SMDPad,CuDef*%
%ADD59RoundRect,0.250000X-1.025000X0.875000X-1.025000X-0.875000X1.025000X-0.875000X1.025000X0.875000X0*%
%TD*%
%TA.AperFunction,ComponentPad*%
%ADD60R,1.800000X1.400000*%
%TD*%
%TA.AperFunction,ComponentPad*%
%ADD61O,1.800000X1.400000*%
%TD*%
%TA.AperFunction,ViaPad*%
%ADD62C,3.000000*%
%TD*%
%TA.AperFunction,ViaPad*%
%ADD63C,1.500000*%
%TD*%
%TA.AperFunction,ViaPad*%
%ADD64C,0.600000*%
%TD*%
%TA.AperFunction,ViaPad*%
%ADD65C,1.000000*%
%TD*%
%TA.AperFunction,Conductor*%
%ADD66C,1.000000*%
%TD*%
%TA.AperFunction,Conductor*%
%ADD67C,2.000000*%
%TD*%
%TA.AperFunction,Conductor*%
%ADD68C,0.500000*%
%TD*%
%TA.AperFunction,Conductor*%
%ADD69C,3.500000*%
%TD*%
%TA.AperFunction,Conductor*%
%ADD70C,0.300000*%
%TD*%
%TA.AperFunction,Conductor*%
%ADD71C,3.000000*%
%TD*%
%TA.AperFunction,Conductor*%
%ADD72C,0.200000*%
%TD*%
G04 APERTURE END LIST*
D10*
%TO.P,C16,1*%
%TO.N,/High Voltage Supplies/-98VDC*%
X110500000Y-66750000D03*
%TO.P,C16,2*%
%TO.N,GND*%
X110500000Y-71750000D03*
%TD*%
D11*
%TO.P,C18,1*%
%TO.N,/+12VU*%
X296937500Y-179500000D03*
%TO.P,C18,2*%
%TO.N,Net-(U2-ADJ)*%
X300062500Y-179500000D03*
%TD*%
D12*
%TO.P,TR6,1,B*%
%TO.N,Net-(TR6-B)*%
X118445000Y-98040000D03*
D13*
%TO.P,TR6,2,C*%
%TO.N,Net-(TR6-C)*%
X118445000Y-95500000D03*
%TO.P,TR6,3,E*%
%TO.N,/High Voltage Supplies/-98VDC*%
X118445000Y-92960000D03*
%TD*%
D10*
%TO.P,C13,1*%
%TO.N,/High Voltage Supplies/+68VDC*%
X150750000Y-70250000D03*
%TO.P,C13,2*%
%TO.N,GND*%
X150750000Y-65250000D03*
%TD*%
D14*
%TO.P,D7,1,K*%
%TO.N,/High Voltage Supplies/100VAC*%
X177850000Y-109500000D03*
D15*
%TO.P,D7,2,A*%
%TO.N,Net-(D7-A)*%
X165150000Y-109500000D03*
%TD*%
D14*
%TO.P,D13,1,K*%
%TO.N,Net-(D13-K)*%
X234000000Y-215670000D03*
D15*
%TO.P,D13,2,A*%
%TO.N,Net-(CN7-Pin_4)*%
X234000000Y-225830000D03*
%TD*%
D16*
%TO.P,C14,1*%
%TO.N,/+12V_DISP*%
X120000000Y-61000000D03*
D10*
%TO.P,C14,2*%
%TO.N,GND*%
X120000000Y-63500000D03*
%TD*%
D17*
%TO.P,C27,1*%
%TO.N,Net-(U1-BST)*%
X312462500Y-112600000D03*
%TO.P,C27,2*%
%TO.N,Net-(Q1-S)*%
X309337500Y-112600000D03*
%TD*%
D18*
%TO.P,F4,1*%
%TO.N,/+18V*%
X148000000Y-172906200D03*
X148000000Y-180526200D03*
D19*
X147955800Y-183342400D03*
X147955800Y-188422400D03*
%TO.P,F4,2*%
%TO.N,/+18V_F*%
X147955800Y-191622400D03*
X147955800Y-196702400D03*
D18*
X148000000Y-199500000D03*
X148000000Y-207120000D03*
%TD*%
D10*
%TO.P,R22,1*%
%TO.N,/+5V_F*%
X271810000Y-69440000D03*
D20*
%TO.P,R22,2*%
%TO.N,Net-(D2-REF)*%
X287050000Y-69440000D03*
%TD*%
D10*
%TO.P,R10,1*%
%TO.N,/High Voltage Supplies/-110VDC*%
X137880000Y-82000000D03*
D20*
%TO.P,R10,2*%
%TO.N,GND*%
X153120000Y-82000000D03*
%TD*%
D21*
%TO.P,H5,1*%
%TO.N,unconnected-(H5-Pad1)*%
X214630000Y-217794800D03*
X217556815Y-218992985D03*
X211703185Y-218992985D03*
X218755000Y-221919800D03*
D22*
X214630000Y-221919800D03*
D21*
X210505000Y-221919800D03*
X217556815Y-224846615D03*
X211703185Y-224846615D03*
X214630000Y-226044800D03*
%TD*%
D10*
%TO.P,R11,1*%
%TO.N,GND*%
X162880000Y-85500000D03*
D20*
%TO.P,R11,2*%
%TO.N,/High Voltage Supplies/+68VDC*%
X178120000Y-85500000D03*
%TD*%
D18*
%TO.P,F6,1*%
%TO.N,/+32VB*%
X123000000Y-172906200D03*
X123000000Y-180526200D03*
D19*
X122955800Y-183342400D03*
X122955800Y-188422400D03*
%TO.P,F6,2*%
%TO.N,/+32VB_F*%
X122955800Y-191622400D03*
X122955800Y-196702400D03*
D18*
X123000000Y-199500000D03*
X123000000Y-207120000D03*
%TD*%
D10*
%TO.P,R28,1*%
%TO.N,/+32VA_F*%
X112370000Y-118000000D03*
D20*
%TO.P,R28,2*%
%TO.N,GND*%
X97130000Y-118000000D03*
%TD*%
D23*
%TO.P,CN2,1,Pin_1*%
%TO.N,GND*%
X203477000Y-221361000D03*
D24*
%TO.P,CN2,2,Pin_2*%
X199517000Y-221361000D03*
%TO.P,CN2,3,Pin_3*%
X195557000Y-221361000D03*
%TO.P,CN2,4,Pin_4*%
X191597000Y-221361000D03*
%TO.P,CN2,5,Pin_5*%
X187637000Y-221361000D03*
%TO.P,CN2,6,Pin_6*%
X183677000Y-221361000D03*
%TD*%
D25*
%TO.P,C3,1*%
%TO.N,/+12VU*%
X335750000Y-77887500D03*
%TO.P,C3,2*%
%TO.N,GND*%
X335750000Y-72612500D03*
%TD*%
D26*
%TO.P,R20,1*%
%TO.N,/12V Supplies/-12V_REG*%
X208700000Y-112250000D03*
%TO.P,R20,2*%
%TO.N,Net-(U3-ADJ)*%
X211800000Y-112250000D03*
%TD*%
D17*
%TO.P,C21,1*%
%TO.N,Net-(U1-FB)*%
X305062500Y-107750000D03*
%TO.P,C21,2*%
%TO.N,/5V_Supply/+5V*%
X301937500Y-107750000D03*
%TD*%
D27*
%TO.P,C4,1*%
%TO.N,/+12VU*%
X252500000Y-114000000D03*
D18*
%TO.P,C4,2*%
%TO.N,GND*%
X242500000Y-114000000D03*
%TD*%
D14*
%TO.P,D14,1,K*%
%TO.N,Net-(D14-K)*%
X229500000Y-215750000D03*
D15*
%TO.P,D14,2,A*%
%TO.N,Net-(CN7-Pin_5)*%
X229500000Y-225910000D03*
%TD*%
D28*
%TO.P,R3,1*%
%TO.N,Net-(U1-FB)*%
X305050000Y-101250000D03*
%TO.P,R3,2*%
%TO.N,/5V_Supply/+5V*%
X301950000Y-101250000D03*
%TD*%
D29*
%TO.P,D2,1,REF*%
%TO.N,Net-(D2-REF)*%
X292500000Y-72460000D03*
D30*
%TO.P,D2,2,A*%
%TO.N,GND*%
X292500000Y-73730000D03*
%TO.P,D2,3,K*%
%TO.N,Net-(D2-K)*%
X292500000Y-75000000D03*
%TD*%
D14*
%TO.P,D10,1,K*%
%TO.N,Net-(D10-K)*%
X164650000Y-90000000D03*
D15*
%TO.P,D10,2,A*%
%TO.N,Net-(D10-A)*%
X177350000Y-90000000D03*
%TD*%
D12*
%TO.P,TR3,1,B*%
%TO.N,Net-(D9-K)*%
X197555000Y-67960000D03*
D13*
%TO.P,TR3,2,C*%
%TO.N,Net-(D6-K)*%
X197555000Y-70500000D03*
%TO.P,TR3,3,E*%
%TO.N,/High Voltage Supplies/+68VDC*%
X197555000Y-73040000D03*
%TD*%
D23*
%TO.P,CN8,1,Pin_1*%
%TO.N,Net-(CN8-Pin_1)*%
X296300000Y-221361000D03*
D24*
%TO.P,CN8,2,Pin_2*%
X292340000Y-221361000D03*
%TO.P,CN8,3,Pin_3*%
X288380000Y-221361000D03*
%TO.P,CN8,4,Pin_4*%
X284420000Y-221361000D03*
%TO.P,CN8,5,Pin_5*%
%TO.N,unconnected-(CN8-Pin_5-Pad5)*%
X280460000Y-221361000D03*
%TO.P,CN8,6,Pin_6*%
%TO.N,Net-(CN8-Pin_6)*%
X276500000Y-221361000D03*
%TO.P,CN8,7,Pin_7*%
X272540000Y-221361000D03*
%TO.P,CN8,8,Pin_8*%
X268580000Y-221361000D03*
%TO.P,CN8,9,Pin_9*%
X264620000Y-221361000D03*
%TD*%
D11*
%TO.P,C6,1*%
%TO.N,Net-(U1-VCC)*%
X310137500Y-92500000D03*
%TO.P,C6,2*%
%TO.N,GND*%
X313262500Y-92500000D03*
%TD*%
D18*
%TO.P,F2,1*%
%TO.N,/9VAC_1*%
X189906200Y-158000000D03*
X197526200Y-158000000D03*
D19*
X200342400Y-158044200D03*
X205422400Y-158044200D03*
%TO.P,F2,2*%
%TO.N,Net-(D13-K)*%
X208622400Y-158044200D03*
X213702400Y-158044200D03*
D18*
X216500000Y-158000000D03*
X224120000Y-158000000D03*
%TD*%
D31*
%TO.P,R14,1*%
%TO.N,GND*%
X156750000Y-94750000D03*
D32*
%TO.P,R14,2*%
%TO.N,Net-(TR6-C)*%
X126270000Y-94750000D03*
%TD*%
D33*
%TO.P,C1,1*%
%TO.N,GND*%
X212900000Y-144600000D03*
D31*
%TO.P,C1,2*%
%TO.N,/-12VU*%
X217900000Y-144600000D03*
%TD*%
D17*
%TO.P,C5,1*%
%TO.N,Net-(U1-EN)*%
X304062500Y-96300000D03*
%TO.P,C5,2*%
%TO.N,GND*%
X300937500Y-96300000D03*
%TD*%
D34*
%TO.P,U1,1,VCC*%
%TO.N,Net-(U1-VCC)*%
X308887500Y-95525000D03*
%TO.P,U1,2,VIN*%
%TO.N,/+12VU*%
X308887500Y-96175000D03*
%TO.P,U1,3,EN*%
%TO.N,Net-(U1-EN)*%
X308887500Y-96825000D03*
%TO.P,U1,4,FB*%
%TO.N,Net-(U1-FB)*%
X308887500Y-97475000D03*
%TO.P,U1,5,SGND*%
%TO.N,GND*%
X308887500Y-98125000D03*
%TO.P,U1,6,SS*%
%TO.N,Net-(U1-SS)*%
X308887500Y-98775000D03*
%TO.P,U1,7,RON*%
%TO.N,Net-(U1-RON)*%
X308887500Y-99425000D03*
%TO.P,U1,8,ILIM*%
%TO.N,Net-(U1-ILIM)*%
X314612500Y-99425000D03*
%TO.P,U1,9,SGND*%
%TO.N,GND*%
X314612500Y-98775000D03*
%TO.P,U1,10,SW*%
%TO.N,Net-(Q1-S)*%
X314612500Y-98125000D03*
%TO.P,U1,11,HG*%
%TO.N,Net-(Q1-G)*%
X314612500Y-97475000D03*
%TO.P,U1,12,BST*%
%TO.N,Net-(U1-BST)*%
X314612500Y-96825000D03*
%TO.P,U1,13,LG*%
%TO.N,Net-(Q2-G)*%
X314612500Y-96175000D03*
%TO.P,U1,14,PGND*%
%TO.N,GND*%
X314612500Y-95525000D03*
D35*
%TO.P,U1,15,SGND*%
X311750000Y-97475000D03*
%TD*%
D23*
%TO.P,CN7,1,Pin_1*%
%TO.N,Net-(CN7-Pin_1)*%
X255920000Y-221361000D03*
D24*
%TO.P,CN7,2,Pin_2*%
%TO.N,unconnected-(CN7-Pin_2-Pad2)*%
X251960000Y-221361000D03*
%TO.P,CN7,3,Pin_3*%
%TO.N,Net-(CN7-Pin_3)*%
X248000000Y-221361000D03*
%TO.P,CN7,4,Pin_4*%
%TO.N,Net-(CN7-Pin_4)*%
X244040000Y-221361000D03*
%TO.P,CN7,5,Pin_5*%
%TO.N,Net-(CN7-Pin_5)*%
X240080000Y-221361000D03*
%TD*%
D36*
%TO.P,C8b1,1*%
%TO.N,/+32VA_F*%
X117632323Y-122500000D03*
D19*
%TO.P,C8b1,2*%
%TO.N,GND*%
X122632323Y-122500000D03*
%TD*%
D37*
%TO.P,CN4,1,Pin_1*%
%TO.N,GND*%
X106605000Y-217280000D03*
D38*
%TO.P,CN4,2,Pin_2*%
X106605000Y-213320000D03*
%TO.P,CN4,3,Pin_3*%
X106605000Y-209360000D03*
%TO.P,CN4,4,Pin_4*%
X106605000Y-205400000D03*
%TO.P,CN4,5,Pin_5*%
%TO.N,/+18V_F*%
X106605000Y-201440000D03*
%TO.P,CN4,6,Pin_6*%
X106605000Y-197480000D03*
%TO.P,CN4,7,Pin_7*%
X106605000Y-193520000D03*
%TO.P,CN4,8,Pin_8*%
X106605000Y-189560000D03*
%TO.P,CN4,9,Pin_9*%
%TO.N,GND*%
X106605000Y-185600000D03*
%TO.P,CN4,10,Pin_10*%
X106605000Y-181640000D03*
%TO.P,CN4,11,Pin_11*%
X106605000Y-177680000D03*
%TO.P,CN4,12,Pin_12*%
X106605000Y-173720000D03*
%TD*%
D10*
%TO.P,R21,1*%
%TO.N,Net-(D1-K)*%
X251790000Y-183210000D03*
D20*
%TO.P,R21,2*%
%TO.N,Net-(CN7-Pin_3)*%
X251790000Y-198450000D03*
%TD*%
D39*
%TO.P,TP1,1,1*%
%TO.N,GND*%
X152500000Y-150000000D03*
%TD*%
D18*
%TO.P,F5,1*%
%TO.N,/+32VA*%
X135500000Y-172906200D03*
X135500000Y-180526200D03*
D19*
X135455800Y-183342400D03*
X135455800Y-188422400D03*
%TO.P,F5,2*%
%TO.N,/+32VA_F*%
X135455800Y-191622400D03*
X135455800Y-196702400D03*
D18*
X135500000Y-199500000D03*
X135500000Y-207120000D03*
%TD*%
D23*
%TO.P,CN9,1,Pin_1*%
%TO.N,Net-(CN9-Pin_1)*%
X316920000Y-221361000D03*
D24*
%TO.P,CN9,2,Pin_2*%
%TO.N,Net-(CN8-Pin_6)*%
X312960000Y-221361000D03*
%TO.P,CN9,3,Pin_3*%
%TO.N,Net-(CN9-Pin_1)*%
X309000000Y-221361000D03*
%TO.P,CN9,4,Pin_4*%
%TO.N,Net-(CN8-Pin_6)*%
X305040000Y-221361000D03*
%TD*%
D21*
%TO.P,H6,1*%
%TO.N,unconnected-(H6-Pad1)*%
X94945200Y-45100200D03*
X97872015Y-46298385D03*
X92018385Y-46298385D03*
X99070200Y-49225200D03*
D22*
X94945200Y-49225200D03*
D21*
X90820200Y-49225200D03*
X97872015Y-52152015D03*
X92018385Y-52152015D03*
X94945200Y-53350200D03*
%TD*%
D40*
%TO.P,L1,1,1*%
%TO.N,Net-(Q1-S)*%
X310600000Y-84256800D03*
%TO.P,L1,2,2*%
%TO.N,/5V_Supply/+5V*%
X310600000Y-74300000D03*
%TD*%
D10*
%TO.P,R26,1*%
%TO.N,/-12VU*%
X196620000Y-144500000D03*
D20*
%TO.P,R26,2*%
%TO.N,GND*%
X181380000Y-144500000D03*
%TD*%
D41*
%TO.P,L2,1,1*%
%TO.N,Net-(D4-K)*%
X302750000Y-161750000D03*
%TO.P,L2,2,2*%
%TO.N,/12V Supplies/+12V_REG*%
X291650000Y-161750000D03*
%TD*%
D18*
%TO.P,F7,1*%
%TO.N,/High Voltage Supplies/HV_COM*%
X160500000Y-172906200D03*
X160500000Y-180526200D03*
D19*
X160455800Y-183342400D03*
X160455800Y-188422400D03*
%TO.P,F7,2*%
%TO.N,GND*%
X160455800Y-191622400D03*
X160455800Y-196702400D03*
D18*
X160500000Y-199500000D03*
X160500000Y-207120000D03*
%TD*%
D28*
%TO.P,R1,1*%
%TO.N,/+12VU*%
X312450000Y-106200000D03*
%TO.P,R1,2*%
%TO.N,Net-(U1-RON)*%
X309350000Y-106200000D03*
%TD*%
D17*
%TO.P,C2,1*%
%TO.N,/+12VU*%
X329762500Y-103500000D03*
%TO.P,C2,2*%
%TO.N,GND*%
X326637500Y-103500000D03*
%TD*%
D14*
%TO.P,D6,1,K*%
%TO.N,Net-(D6-K)*%
X164650000Y-70500000D03*
D15*
%TO.P,D6,2,A*%
%TO.N,Net-(D6-A)*%
X177350000Y-70500000D03*
%TD*%
D16*
%TO.P,C15,1*%
%TO.N,/+18V_F*%
X120000000Y-80000000D03*
D10*
%TO.P,C15,2*%
%TO.N,GND*%
X120000000Y-82500000D03*
%TD*%
%TO.P,C12,1*%
%TO.N,GND*%
X147750000Y-76000000D03*
%TO.P,C12,2*%
%TO.N,/High Voltage Supplies/-110VDC*%
X142750000Y-76000000D03*
%TD*%
D12*
%TO.P,Q1,1,G*%
%TO.N,Net-(Q1-G)*%
X326555000Y-74500000D03*
D13*
%TO.P,Q1,2,D*%
%TO.N,/+12VU*%
X326555000Y-77040000D03*
%TO.P,Q1,3,S*%
%TO.N,Net-(Q1-S)*%
X326555000Y-79580000D03*
%TD*%
D10*
%TO.P,C9,1*%
%TO.N,/+32VA_F*%
X113250000Y-143750000D03*
X112000000Y-143750000D03*
%TO.P,C9,2*%
%TO.N,GND*%
X109500000Y-143750000D03*
X108250000Y-143750000D03*
%TD*%
D28*
%TO.P,R19,1*%
%TO.N,Net-(U3-ADJ)*%
X211750000Y-107750000D03*
%TO.P,R19,2*%
%TO.N,GND*%
X208650000Y-107750000D03*
%TD*%
D36*
%TO.P,C8a1,1*%
%TO.N,/+32VA_F*%
X117632323Y-135500000D03*
D19*
%TO.P,C8a1,2*%
%TO.N,GND*%
X122632323Y-135500000D03*
%TD*%
D14*
%TO.P,D9,1,K*%
%TO.N,Net-(D9-K)*%
X177350000Y-66000000D03*
D15*
%TO.P,D9,2,A*%
%TO.N,GND*%
X164650000Y-66000000D03*
%TD*%
D21*
%TO.P,H2,1*%
%TO.N,unconnected-(H2-Pad1)*%
X334314800Y-164708800D03*
X337241615Y-165906985D03*
X331387985Y-165906985D03*
X338439800Y-168833800D03*
D22*
X334314800Y-168833800D03*
D21*
X330189800Y-168833800D03*
X337241615Y-171760615D03*
X331387985Y-171760615D03*
X334314800Y-172958800D03*
%TD*%
D11*
%TO.P,C19,1*%
%TO.N,/12V Supplies/+12V_REG*%
X296937500Y-182250000D03*
%TO.P,C19,2*%
%TO.N,Net-(U2-FB)*%
X300062500Y-182250000D03*
%TD*%
D42*
%TO.P,D4,1,K*%
%TO.N,Net-(D4-K)*%
X318500000Y-171250000D03*
%TO.P,D4,2,A*%
%TO.N,GND*%
X318500000Y-178050000D03*
%TD*%
D26*
%TO.P,R25,1*%
%TO.N,/12V Supplies/+12V_REG*%
X296900000Y-185000000D03*
%TO.P,R25,2*%
%TO.N,Net-(U2-FB)*%
X300000000Y-185000000D03*
%TD*%
D31*
%TO.P,R15,1*%
%TO.N,Net-(D5-K)*%
X126255000Y-107750000D03*
D32*
%TO.P,R15,2*%
%TO.N,Net-(D6-K)*%
X156735000Y-107750000D03*
%TD*%
D43*
%TO.P,C25,1*%
%TO.N,/5V_Supply/+5V*%
X319050000Y-62500000D03*
%TO.P,C25,2*%
%TO.N,GND*%
X325450000Y-62500000D03*
%TD*%
D10*
%TO.P,R24,1*%
%TO.N,/+5V_F*%
X271810000Y-78940000D03*
D20*
%TO.P,R24,2*%
%TO.N,Net-(D2-K)*%
X287050000Y-78940000D03*
%TD*%
D10*
%TO.P,R17,1*%
%TO.N,Net-(D10-K)*%
X114380000Y-87500000D03*
D20*
%TO.P,R17,2*%
%TO.N,Net-(TR6-B)*%
X129620000Y-87500000D03*
%TD*%
D17*
%TO.P,C7,1*%
%TO.N,Net-(U1-SS)*%
X305062500Y-111000000D03*
%TO.P,C7,2*%
%TO.N,GND*%
X301937500Y-111000000D03*
%TD*%
D11*
%TO.P,C17,1*%
%TO.N,/+12VU*%
X297000000Y-193500000D03*
%TO.P,C17,2*%
%TO.N,Net-(U2-VCC)*%
X300125000Y-193500000D03*
%TD*%
D27*
%TO.P,C10,1*%
%TO.N,Net-(D5-K)*%
X145500000Y-132500000D03*
D18*
%TO.P,C10,2*%
%TO.N,GND*%
X145500000Y-122500000D03*
%TD*%
D12*
%TO.P,D3,1,A2*%
%TO.N,GND*%
X261500000Y-71500000D03*
D13*
%TO.P,D3,2,A1*%
%TO.N,/+5V_F*%
X261500000Y-74040000D03*
%TO.P,D3,3,G*%
%TO.N,Net-(D2-K)*%
X261500000Y-76580000D03*
%TD*%
D44*
%TO.P,RY1,1*%
%TO.N,Net-(CN8-Pin_1)*%
X266891000Y-203784000D03*
%TO.P,RY1,2*%
%TO.N,Net-(D1-K)*%
X272890999Y-201784000D03*
%TO.P,RY1,3*%
%TO.N,Net-(CN9-Pin_1)*%
X272890999Y-189534001D03*
%TO.P,RY1,4*%
%TO.N,unconnected-(RY1-Pad4)*%
X260891001Y-189534001D03*
%TO.P,RY1,5*%
%TO.N,Net-(CN7-Pin_1)*%
X260891001Y-201784000D03*
%TD*%
D37*
%TO.P,CN10,1,Pin_1*%
%TO.N,GND*%
X101092000Y-74930000D03*
D38*
%TO.P,CN10,2,Pin_2*%
X101092000Y-70970000D03*
%TO.P,CN10,3,Pin_3*%
X101092000Y-67010000D03*
%TD*%
D26*
%TO.P,R5,1*%
%TO.N,/+12VU*%
X296950000Y-187750000D03*
%TO.P,R5,2*%
%TO.N,Net-(U2-RT)*%
X300050000Y-187750000D03*
%TD*%
D10*
%TO.P,R8,1*%
%TO.N,GND*%
X162880000Y-80500000D03*
D20*
%TO.P,R8,2*%
%TO.N,Net-(D6-A)*%
X178120000Y-80500000D03*
%TD*%
D45*
%TO.P,Q3,1,S*%
%TO.N,Net-(U2-ISEN)*%
X312155000Y-162890000D03*
%TO.P,Q3,2,S*%
X310885000Y-162890000D03*
%TO.P,Q3,3,S*%
X309615000Y-162890000D03*
%TO.P,Q3,4,G*%
%TO.N,Net-(Q3-G)*%
X308345000Y-162890000D03*
D46*
%TO.P,Q3,5,D*%
%TO.N,Net-(D4-K)*%
X310250000Y-166250000D03*
D47*
X312155000Y-168355000D03*
X310885000Y-168355000D03*
X309615000Y-168355000D03*
X308345000Y-168355000D03*
%TD*%
D18*
%TO.P,F1,1*%
%TO.N,/9VAC_2*%
X189906200Y-170500000D03*
X197526200Y-170500000D03*
D19*
X200342400Y-170544200D03*
X205422400Y-170544200D03*
%TO.P,F1,2*%
%TO.N,Net-(D14-K)*%
X208622400Y-170544200D03*
X213702400Y-170544200D03*
D18*
X216500000Y-170500000D03*
X224120000Y-170500000D03*
%TD*%
D23*
%TO.P,CN3,1,Pin_1*%
%TO.N,Net-(CN1-Pin_6)*%
X172870000Y-221361000D03*
D24*
%TO.P,CN3,2,Pin_2*%
X168910000Y-221361000D03*
%TO.P,CN3,3,Pin_3*%
%TO.N,GND*%
X164950000Y-221361000D03*
%TO.P,CN3,4,Pin_4*%
%TO.N,/+32VB_F*%
X160990000Y-221361000D03*
%TO.P,CN3,5,Pin_5*%
X157030000Y-221361000D03*
%TO.P,CN3,6,Pin_6*%
%TO.N,/+32VA_F*%
X153070000Y-221361000D03*
%TO.P,CN3,7,Pin_7*%
X149110000Y-221361000D03*
%TO.P,CN3,8,Pin_8*%
X145150000Y-221361000D03*
%TO.P,CN3,9,Pin_9*%
%TO.N,unconnected-(CN3-Pin_9-Pad9)*%
X141190000Y-221361000D03*
%TO.P,CN3,10,Pin_10*%
%TO.N,GND*%
X137230000Y-221361000D03*
%TD*%
D10*
%TO.P,R27,1*%
%TO.N,/+12VU*%
X285500000Y-108250000D03*
D20*
%TO.P,R27,2*%
%TO.N,GND*%
X285500000Y-123490000D03*
%TD*%
D27*
%TO.P,C11,1*%
%TO.N,GND*%
X173000000Y-132500000D03*
D18*
%TO.P,C11,2*%
%TO.N,Net-(D7-A)*%
X173000000Y-122500000D03*
%TD*%
%TO.P,DB1,1,+*%
%TO.N,/+12VU*%
X258740000Y-163840000D03*
D48*
X258740000Y-161350000D03*
D18*
X258740000Y-158760000D03*
D49*
X254540000Y-160240000D03*
D18*
%TO.P,DB1,2*%
%TO.N,Net-(D13-K)*%
X244015000Y-162700000D03*
D50*
X241435000Y-162700000D03*
D18*
X238935000Y-162700000D03*
D49*
X236440000Y-166940000D03*
D18*
%TO.P,DB1,3*%
%TO.N,Net-(D14-K)*%
X258315000Y-144600000D03*
D50*
X255825000Y-144600000D03*
D49*
X254540000Y-148840000D03*
D18*
X253235000Y-144600000D03*
%TO.P,DB1,4,-*%
%TO.N,/-12VU*%
X244015000Y-144600000D03*
D50*
X241525000Y-144600000D03*
D18*
X238935000Y-144600000D03*
D49*
X236440000Y-148840000D03*
%TD*%
D21*
%TO.P,H1,1*%
%TO.N,unconnected-(H1-Pad1)*%
X334314800Y-45100200D03*
X337241615Y-46298385D03*
X338439800Y-49225200D03*
D22*
X334314800Y-49225200D03*
D51*
X329869800Y-49225200D03*
D21*
X337241615Y-52152015D03*
X334314800Y-53350200D03*
%TD*%
D26*
%TO.P,R18,1*%
%TO.N,Net-(U2-FB)*%
X296950000Y-190500000D03*
%TO.P,R18,2*%
%TO.N,GND*%
X300050000Y-190500000D03*
%TD*%
D14*
%TO.P,D5,1,K*%
%TO.N,Net-(D5-K)*%
X177850000Y-113500000D03*
D15*
%TO.P,D5,2,A*%
%TO.N,/High Voltage Supplies/90VAC*%
X165150000Y-113500000D03*
%TD*%
D29*
%TO.P,TR2,1,E*%
%TO.N,Net-(TR2-E)*%
X186640000Y-99230000D03*
D30*
%TO.P,TR2,2,B*%
%TO.N,Net-(D8-K)*%
X186640000Y-100500000D03*
%TO.P,TR2,3,C*%
%TO.N,Net-(D10-A)*%
X186640000Y-101770000D03*
%TD*%
D10*
%TO.P,R16,1*%
%TO.N,/+12V_DISP*%
X126880000Y-60500000D03*
D20*
%TO.P,R16,2*%
%TO.N,GND*%
X142120000Y-60500000D03*
%TD*%
D16*
%TO.P,C23,1*%
%TO.N,GND*%
X208817621Y-84000000D03*
D10*
%TO.P,C23,2*%
%TO.N,/12V Supplies/-12V_REG*%
X211317621Y-84000000D03*
%TD*%
%TO.P,R23,1*%
%TO.N,Net-(D2-REF)*%
X271810000Y-74190000D03*
D20*
%TO.P,R23,2*%
%TO.N,GND*%
X287050000Y-74190000D03*
%TD*%
D16*
%TO.P,C22,1*%
%TO.N,GND*%
X214000000Y-121750000D03*
D10*
%TO.P,C22,2*%
%TO.N,/-12VU*%
X216500000Y-121750000D03*
%TD*%
D26*
%TO.P,R6,1*%
%TO.N,/+12VU*%
X296950000Y-176750000D03*
%TO.P,R6,2*%
%TO.N,Net-(U2-ADJ)*%
X300050000Y-176750000D03*
%TD*%
D10*
%TO.P,R12,1*%
%TO.N,Net-(TR1-E)*%
X162880000Y-75500000D03*
D20*
%TO.P,R12,2*%
%TO.N,Net-(D6-K)*%
X178120000Y-75500000D03*
%TD*%
D14*
%TO.P,D11,1,K*%
%TO.N,GND*%
X139150000Y-86500000D03*
D15*
%TO.P,D11,2,A*%
%TO.N,Net-(D10-K)*%
X151850000Y-86500000D03*
%TD*%
D52*
%TO.P,U2,1,ADJ*%
%TO.N,Net-(U2-ADJ)*%
X306210000Y-181055000D03*
%TO.P,U2,2,RT*%
%TO.N,Net-(U2-RT)*%
X306210000Y-181705000D03*
%TO.P,U2,3,FB*%
%TO.N,Net-(U2-FB)*%
X306210000Y-182355000D03*
%TO.P,U2,4,GND*%
%TO.N,GND*%
X306210000Y-183005000D03*
%TO.P,U2,5,ISEN*%
%TO.N,Net-(U2-ISEN)*%
X310510000Y-183005000D03*
%TO.P,U2,6,PGATE*%
%TO.N,Net-(Q3-G)*%
X310510000Y-182355000D03*
%TO.P,U2,7,VCC*%
%TO.N,Net-(U2-VCC)*%
X310510000Y-181705000D03*
%TO.P,U2,8,VIN*%
%TO.N,/+12VU*%
X310510000Y-181055000D03*
D53*
%TO.P,U2,9,EP*%
%TO.N,GND*%
X307875000Y-181385000D03*
X307875000Y-182675000D03*
D54*
X308360000Y-182030000D03*
D53*
X308845000Y-181385000D03*
X308845000Y-182675000D03*
%TD*%
D55*
%TO.P,R7,1*%
%TO.N,/+12VU*%
X311000000Y-153900000D03*
%TO.P,R7,2*%
%TO.N,Net-(U2-ISEN)*%
X311000000Y-160000000D03*
%TD*%
D10*
%TO.P,R9,1*%
%TO.N,Net-(D8-K)*%
X178250000Y-100250000D03*
D20*
%TO.P,R9,2*%
%TO.N,GND*%
X163010000Y-100250000D03*
%TD*%
D10*
%TO.P,R13,1*%
%TO.N,Net-(TR2-E)*%
X162880000Y-95000000D03*
D20*
%TO.P,R13,2*%
%TO.N,Net-(D7-A)*%
X178120000Y-95000000D03*
%TD*%
D21*
%TO.P,H7,1*%
%TO.N,unconnected-(H7-Pad1)*%
X94945200Y-164708800D03*
X97872015Y-165906985D03*
X92018385Y-165906985D03*
X99070200Y-168833800D03*
D22*
X94945200Y-168833800D03*
D21*
X90820200Y-168833800D03*
X97872015Y-171760615D03*
X92018385Y-171760615D03*
X94945200Y-172958800D03*
%TD*%
D14*
%TO.P,D1,1,K*%
%TO.N,Net-(D1-K)*%
X246790000Y-183250000D03*
D15*
%TO.P,D1,2,A*%
%TO.N,Net-(CN7-Pin_1)*%
X246790000Y-193410000D03*
%TD*%
D14*
%TO.P,D8,1,K*%
%TO.N,Net-(D8-K)*%
X165150000Y-105500000D03*
D15*
%TO.P,D8,2,A*%
%TO.N,Net-(D7-A)*%
X177850000Y-105500000D03*
%TD*%
D56*
%TO.P,F3,1*%
%TO.N,/5V_Supply/+5V*%
X310210000Y-60000000D03*
%TO.P,F3,2*%
%TO.N,/+5V_F*%
X305300000Y-60000000D03*
%TD*%
D57*
%TO.P,CN6,1,Pin_1*%
%TO.N,GND*%
X143940000Y-50000000D03*
D24*
%TO.P,CN6,2,Pin_2*%
%TO.N,/12V Supplies/-12V_REG*%
X147900000Y-50000000D03*
%TO.P,CN6,3,Pin_3*%
%TO.N,/12V Supplies/+12V_REG*%
X151860000Y-50000000D03*
%TO.P,CN6,4,Pin_4*%
%TO.N,unconnected-(CN6-Pin_4-Pad4)*%
X155820000Y-50000000D03*
%TO.P,CN6,5,Pin_5*%
%TO.N,unconnected-(CN6-Pin_5-Pad5)*%
X159780000Y-50000000D03*
%TO.P,CN6,6,Pin_6*%
%TO.N,/12V Supplies/+12V_REG*%
X163740000Y-50000000D03*
%TO.P,CN6,7,Pin_7*%
%TO.N,/+5V_F*%
X167700000Y-50000000D03*
%TO.P,CN6,8,Pin_8*%
X171660000Y-50000000D03*
%TO.P,CN6,9,Pin_9*%
X175620000Y-50000000D03*
%TO.P,CN6,10,Pin_10*%
X179580000Y-50000000D03*
%TO.P,CN6,11,Pin_11*%
%TO.N,GND*%
X183540000Y-50000000D03*
%TO.P,CN6,12,Pin_12*%
X187500000Y-50000000D03*
%TO.P,CN6,13,Pin_13*%
X191460000Y-50000000D03*
%TO.P,CN6,14,Pin_14*%
X195420000Y-50000000D03*
%TO.P,CN6,15,Pin_15*%
X199380000Y-50000000D03*
%TD*%
D26*
%TO.P,R4,1*%
%TO.N,GND*%
X301950000Y-104500000D03*
%TO.P,R4,2*%
%TO.N,Net-(U1-FB)*%
X305050000Y-104500000D03*
%TD*%
D21*
%TO.P,H4,1*%
%TO.N,unconnected-(H4-Pad1)*%
X214630000Y-45100200D03*
X217556815Y-46298385D03*
X211703185Y-46298385D03*
X218755000Y-49225200D03*
D22*
X214630000Y-49225200D03*
D21*
X210505000Y-49225200D03*
X217556815Y-52152015D03*
X211703185Y-52152015D03*
X214630000Y-53350200D03*
%TD*%
D57*
%TO.P,CN5,1,Pin_1*%
%TO.N,GND*%
X105722000Y-50000000D03*
D24*
%TO.P,CN5,2,Pin_2*%
%TO.N,/High Voltage Supplies/-98VDC*%
X109682000Y-50000000D03*
%TO.P,CN5,3,Pin_3*%
%TO.N,/High Voltage Supplies/-110VDC*%
X113642000Y-50000000D03*
%TO.P,CN5,4,Pin_4*%
%TO.N,/High Voltage Supplies/+68VDC*%
X117602000Y-50000000D03*
%TO.P,CN5,5,Pin_5*%
%TO.N,/+12V_DISP*%
X121562000Y-50000000D03*
%TO.P,CN5,6,Pin_6*%
%TO.N,/+5V_F*%
X125522000Y-50000000D03*
%TO.P,CN5,7,Pin_7*%
%TO.N,unconnected-(CN5-Pin_7-Pad7)*%
X129482000Y-50000000D03*
%TO.P,CN5,8,Pin_8*%
%TO.N,unconnected-(CN5-Pin_8-Pad8)*%
X133442000Y-50000000D03*
%TD*%
D12*
%TO.P,VR1,1,VI*%
%TO.N,/+18V_F*%
X123555000Y-68960000D03*
D13*
%TO.P,VR1,2,GND*%
%TO.N,GND*%
X123555000Y-71500000D03*
%TO.P,VR1,3,VO*%
%TO.N,/+12V_DISP*%
X123555000Y-74040000D03*
%TD*%
D17*
%TO.P,C24,1*%
%TO.N,GND*%
X280500000Y-84500000D03*
%TO.P,C24,2*%
%TO.N,/+5V_F*%
X277375000Y-84500000D03*
%TD*%
D58*
%TO.P,Z1,1*%
%TO.N,/+32VA_F*%
X98500000Y-128000000D03*
%TO.P,Z1,2*%
%TO.N,GND*%
X106000000Y-130900000D03*
%TD*%
D29*
%TO.P,TR1,1,E*%
%TO.N,Net-(TR1-E)*%
X186640000Y-70730000D03*
D30*
%TO.P,TR1,2,B*%
%TO.N,Net-(D6-A)*%
X186640000Y-72000000D03*
%TO.P,TR1,3,C*%
%TO.N,Net-(D9-K)*%
X186640000Y-73270000D03*
%TD*%
D59*
%TO.P,C20,1*%
%TO.N,/12V Supplies/+12V_REG*%
X282250000Y-165000000D03*
%TO.P,C20,2*%
%TO.N,GND*%
X282250000Y-171400000D03*
%TD*%
D57*
%TO.P,CN1,1,Pin_1*%
%TO.N,/+18V*%
X181740000Y-194500000D03*
D24*
%TO.P,CN1,2,Pin_2*%
%TO.N,/+32VA*%
X185700000Y-194500000D03*
%TO.P,CN1,3,Pin_3*%
%TO.N,/+32VB*%
X189660000Y-194500000D03*
%TO.P,CN1,4,Pin_4*%
%TO.N,/High Voltage Supplies/90VAC*%
X193620000Y-194500000D03*
%TO.P,CN1,5,Pin_5*%
%TO.N,unconnected-(CN1-Pin_5-Pad5)*%
X197580000Y-194500000D03*
%TO.P,CN1,6,Pin_6*%
%TO.N,Net-(CN1-Pin_6)*%
X201540000Y-194500000D03*
%TO.P,CN1,7,Pin_7*%
%TO.N,/High Voltage Supplies/100VAC*%
X205500000Y-194500000D03*
%TO.P,CN1,8,Pin_8*%
%TO.N,unconnected-(CN1-Pin_8-Pad8)*%
X209460000Y-194500000D03*
%TO.P,CN1,9,Pin_9*%
%TO.N,/High Voltage Supplies/HV_COM*%
X213420000Y-194500000D03*
%TO.P,CN1,10,Pin_10*%
%TO.N,/9VAC_2*%
X217380000Y-194500000D03*
%TO.P,CN1,11,Pin_11*%
%TO.N,/9VAC_1*%
X221340000Y-194500000D03*
%TO.P,CN1,12,Pin_12*%
%TO.N,GND*%
X225300000Y-194500000D03*
%TD*%
D12*
%TO.P,Q2,1,G*%
%TO.N,Net-(Q2-G)*%
X326555000Y-90250000D03*
D13*
%TO.P,Q2,2,D*%
%TO.N,Net-(Q1-S)*%
X326555000Y-92790000D03*
%TO.P,Q2,3,S*%
%TO.N,GND*%
X326555000Y-95330000D03*
%TD*%
D21*
%TO.P,H8,1*%
%TO.N,unconnected-(H8-Pad1)*%
X94945200Y-217794800D03*
X97872015Y-218992985D03*
X92018385Y-218992985D03*
X99070200Y-221919800D03*
D22*
X94945200Y-221919800D03*
D21*
X90820200Y-221919800D03*
X97872015Y-224846615D03*
X92018385Y-224846615D03*
X94945200Y-226044800D03*
%TD*%
D43*
%TO.P,C26,1*%
%TO.N,/+12VU*%
X314800000Y-144750000D03*
%TO.P,C26,2*%
%TO.N,GND*%
X321200000Y-144750000D03*
%TD*%
D60*
%TO.P,U3,1,ADJ*%
%TO.N,Net-(U3-ADJ)*%
X213500000Y-91500000D03*
D61*
%TO.P,U3,2,~{ON}/OFF*%
%TO.N,GND*%
X213500000Y-93200000D03*
%TO.P,U3,3,IN*%
%TO.N,/-12VU*%
X213500000Y-94900000D03*
%TO.P,U3,4,GND*%
%TO.N,GND*%
X213500000Y-96600000D03*
%TO.P,U3,5,OUT*%
%TO.N,/12V Supplies/-12V_REG*%
X213500000Y-98300000D03*
%TD*%
D12*
%TO.P,TR4,1,B*%
%TO.N,Net-(D10-A)*%
X197555000Y-97460000D03*
D13*
%TO.P,TR4,2,C*%
%TO.N,Net-(D7-A)*%
X197555000Y-100000000D03*
%TO.P,TR4,3,E*%
%TO.N,/High Voltage Supplies/-110VDC*%
X197555000Y-102540000D03*
%TD*%
D28*
%TO.P,R2,1*%
%TO.N,Net-(U1-ILIM)*%
X312450000Y-109450000D03*
%TO.P,R2,2*%
%TO.N,Net-(Q1-S)*%
X309350000Y-109450000D03*
%TD*%
D21*
%TO.P,H3,1*%
%TO.N,unconnected-(H3-Pad1)*%
X334314800Y-217794800D03*
X337241615Y-218992985D03*
X338439800Y-221919800D03*
D22*
X334314800Y-221919800D03*
D51*
X329869800Y-221919800D03*
D21*
X337241615Y-224846615D03*
X334314800Y-226044800D03*
%TD*%
D62*
%TO.N,GND*%
X335750000Y-62500000D03*
D63*
X210500000Y-131750000D03*
X212000000Y-131750000D03*
D64*
X302500000Y-190500000D03*
D63*
X228750000Y-74500000D03*
X212000000Y-133250000D03*
X227250000Y-74500000D03*
D64*
X324200000Y-103500000D03*
X317250000Y-95500000D03*
X306300000Y-98100000D03*
X317000000Y-99300000D03*
X207000000Y-107750000D03*
D65*
X282250000Y-175750000D03*
D63*
X209000000Y-133250000D03*
X210500000Y-133250000D03*
X228750000Y-70000000D03*
D62*
X330800000Y-62500000D03*
D63*
X227250000Y-71500000D03*
X228750000Y-73000000D03*
X209000000Y-131750000D03*
D62*
X335750000Y-67200000D03*
X312875000Y-176625000D03*
D63*
X227250000Y-73000000D03*
D65*
X315200000Y-160500000D03*
D63*
X207500000Y-131750000D03*
X207500000Y-133250000D03*
D64*
X302200000Y-93900000D03*
D63*
X228750000Y-71500000D03*
X227250000Y-70000000D03*
D64*
X300500000Y-103250000D03*
X311750000Y-97475000D03*
D65*
%TO.N,/High Voltage Supplies/90VAC*%
X189500000Y-117000000D03*
D64*
%TO.N,/+12VU*%
X315400000Y-106200000D03*
D65*
X329000000Y-77000000D03*
D64*
X296100000Y-98200000D03*
X306300000Y-96175000D03*
D65*
X324250000Y-77000000D03*
D64*
X296100000Y-106200000D03*
D63*
%TO.N,/12V Supplies/+12V_REG*%
X281500000Y-144500000D03*
X281500000Y-146000000D03*
X283250000Y-150500000D03*
X281500000Y-147500000D03*
X283250000Y-144500000D03*
D64*
X295250000Y-182250000D03*
D63*
X281500000Y-150500000D03*
D64*
X282340000Y-155750000D03*
D63*
X283250000Y-147500000D03*
X281500000Y-149000000D03*
X283250000Y-146000000D03*
X283250000Y-149000000D03*
D64*
%TO.N,Net-(U1-BST)*%
X317300000Y-96800000D03*
X318900000Y-98400000D03*
D65*
%TO.N,Net-(Q1-S)*%
X328900000Y-92800000D03*
D64*
X318600000Y-93300000D03*
X316400000Y-98100000D03*
D65*
X324310000Y-92790000D03*
D64*
%TO.N,Net-(U2-FB)*%
X295250000Y-190500000D03*
X302000000Y-185000000D03*
D63*
%TO.N,Net-(D6-K)*%
X171250000Y-93000000D03*
D64*
%TO.N,Net-(Q1-G)*%
X331750000Y-84750000D03*
%TO.N,Net-(Q2-G)*%
X330800000Y-90800000D03*
%TO.N,Net-(U2-ISEN)*%
X317600000Y-162300000D03*
X313000000Y-183900000D03*
%TO.N,Net-(Q3-G)*%
X307800000Y-160900000D03*
X312700000Y-182400000D03*
%TO.N,Net-(U2-RT)*%
X303250000Y-181500000D03*
X303250000Y-183500000D03*
D62*
%TO.N,/+32VA_F*%
X117500000Y-161500000D03*
X117500000Y-174750000D03*
D63*
%TO.N,/+18V_F*%
X134250000Y-84500000D03*
X129250000Y-78000000D03*
%TO.N,/+32VB*%
X133750000Y-162250000D03*
X130750000Y-162250000D03*
X126250000Y-162250000D03*
X129250000Y-162250000D03*
X127750000Y-162250000D03*
X130750000Y-160750000D03*
X132250000Y-162250000D03*
X126250000Y-160750000D03*
X133750000Y-160750000D03*
X132250000Y-160750000D03*
X127750000Y-160750000D03*
X129250000Y-160750000D03*
%TD*%
D66*
%TO.N,GND*%
X282250000Y-171400000D02*
X282250000Y-175750000D01*
X324400000Y-145900000D02*
X324400000Y-157400000D01*
D67*
X162880000Y-80500000D02*
X162880000Y-85500000D01*
D66*
X148500000Y-82000000D02*
X144000000Y-86500000D01*
D67*
X156750000Y-89000000D02*
X156750000Y-94750000D01*
D68*
X317225000Y-95525000D02*
X317250000Y-95500000D01*
D69*
X192500000Y-132500000D02*
X173000000Y-132500000D01*
D66*
X321200000Y-144750000D02*
X323250000Y-144750000D01*
D70*
X301937500Y-112437500D02*
X303750000Y-114250000D01*
X300500000Y-104000000D02*
X300500000Y-103250000D01*
D66*
X147750000Y-76000000D02*
X147750000Y-81250000D01*
D70*
X301937500Y-111000000D02*
X301937500Y-112437500D01*
D68*
X287050000Y-74190000D02*
X288560000Y-74190000D01*
D70*
X306210000Y-183005000D02*
X304995000Y-183005000D01*
D67*
X212900000Y-140100000D02*
X215000000Y-138000000D01*
D70*
X303750000Y-114250000D02*
X321750000Y-114250000D01*
D67*
X156750000Y-94750000D02*
X145500000Y-106000000D01*
D68*
X288560000Y-74190000D02*
X289020000Y-73730000D01*
D71*
X106605000Y-209360000D02*
X106605000Y-205400000D01*
D66*
X150750000Y-62750000D02*
X150750000Y-65250000D01*
D67*
X157500000Y-66000000D02*
X164650000Y-66000000D01*
X163010000Y-100250000D02*
X158750000Y-100250000D01*
X215000000Y-132750000D02*
X214750000Y-132500000D01*
X212900000Y-144600000D02*
X212900000Y-140100000D01*
X156750000Y-98250000D02*
X156750000Y-94750000D01*
D66*
X147750000Y-81250000D02*
X148500000Y-82000000D01*
X283250000Y-77990000D02*
X287050000Y-74190000D01*
D70*
X301000000Y-104500000D02*
X300500000Y-104000000D01*
D71*
X106605000Y-177680000D02*
X106605000Y-173720000D01*
D69*
X166000000Y-132500000D02*
X156000000Y-122500000D01*
D67*
X215000000Y-138000000D02*
X215000000Y-132750000D01*
X162880000Y-85500000D02*
X160250000Y-85500000D01*
D66*
X153120000Y-82000000D02*
X148500000Y-82000000D01*
X155750000Y-82000000D02*
X153120000Y-82000000D01*
D70*
X301950000Y-104500000D02*
X301000000Y-104500000D01*
D66*
X156750000Y-83000000D02*
X155750000Y-82000000D01*
D67*
X314300000Y-178050000D02*
X312875000Y-176625000D01*
D68*
X308887500Y-98125000D02*
X306325000Y-98125000D01*
D67*
X158750000Y-100250000D02*
X156750000Y-98250000D01*
X160250000Y-85500000D02*
X156750000Y-89000000D01*
X157000000Y-66500000D02*
X157500000Y-66000000D01*
D69*
X173000000Y-132500000D02*
X166000000Y-132500000D01*
D66*
X142120000Y-60500000D02*
X148500000Y-60500000D01*
D68*
X306325000Y-98125000D02*
X306300000Y-98100000D01*
X289020000Y-73730000D02*
X292500000Y-73730000D01*
D66*
X156750000Y-89000000D02*
X156750000Y-83000000D01*
D70*
X317250000Y-93950000D02*
X317250000Y-95500000D01*
D66*
X280500000Y-84500000D02*
X281750000Y-84500000D01*
D70*
X300050000Y-190500000D02*
X302500000Y-190500000D01*
X321750000Y-114250000D02*
X324200000Y-111800000D01*
D66*
X323250000Y-144750000D02*
X324400000Y-145900000D01*
D68*
X326637500Y-103500000D02*
X324200000Y-103500000D01*
D70*
X304995000Y-183005000D02*
X304750000Y-183250000D01*
D71*
X106605000Y-181640000D02*
X106605000Y-177680000D01*
D69*
X214750000Y-132500000D02*
X216750000Y-132500000D01*
D66*
X150750000Y-65250000D02*
X155750000Y-65250000D01*
D70*
X324200000Y-111800000D02*
X324200000Y-103500000D01*
X300937500Y-95162500D02*
X302200000Y-93900000D01*
D66*
X144000000Y-86500000D02*
X139150000Y-86500000D01*
D67*
X162880000Y-80500000D02*
X157000000Y-74620000D01*
D66*
X281750000Y-84500000D02*
X283250000Y-83000000D01*
D70*
X317000000Y-99300000D02*
X316475000Y-98775000D01*
X304750000Y-188250000D02*
X302500000Y-190500000D01*
D71*
X106605000Y-217280000D02*
X106605000Y-213320000D01*
D69*
X212750000Y-132500000D02*
X214750000Y-132500000D01*
D70*
X316475000Y-98775000D02*
X314612500Y-98775000D01*
D66*
X283250000Y-83000000D02*
X283250000Y-77990000D01*
D70*
X317250000Y-93950000D02*
X315800000Y-92500000D01*
D66*
X324400000Y-157400000D02*
X321300000Y-160500000D01*
D69*
X216750000Y-132500000D02*
X228000000Y-121250000D01*
D67*
X157000000Y-74620000D02*
X157000000Y-66500000D01*
D68*
X314612500Y-95525000D02*
X317225000Y-95525000D01*
D72*
X207500000Y-107750000D02*
X207000000Y-107750000D01*
D66*
X148500000Y-60500000D02*
X150750000Y-62750000D01*
D69*
X228000000Y-121250000D02*
X228000000Y-75750000D01*
X156000000Y-122500000D02*
X145500000Y-122500000D01*
D71*
X106605000Y-185600000D02*
X106605000Y-181640000D01*
D67*
X318500000Y-178050000D02*
X314300000Y-178050000D01*
X312875000Y-176625000D02*
X312750000Y-176500000D01*
D66*
X321300000Y-160500000D02*
X315200000Y-160500000D01*
D72*
X208650000Y-107750000D02*
X207500000Y-107750000D01*
D70*
X300937500Y-96300000D02*
X300937500Y-95162500D01*
D71*
X106605000Y-213320000D02*
X106605000Y-209360000D01*
D67*
X145500000Y-106000000D02*
X145500000Y-122500000D01*
D66*
X155750000Y-65250000D02*
X157000000Y-66500000D01*
D70*
X315800000Y-92500000D02*
X313262500Y-92500000D01*
X304750000Y-183250000D02*
X304750000Y-188250000D01*
D68*
%TO.N,/High Voltage Supplies/90VAC*%
X168650000Y-117000000D02*
X189500000Y-117000000D01*
X165150000Y-113500000D02*
X168650000Y-117000000D01*
D70*
%TO.N,/+12VU*%
X294850000Y-176750000D02*
X294000000Y-177600000D01*
X294000000Y-192000000D02*
X294000000Y-187750000D01*
X296937500Y-179500000D02*
X294000000Y-179500000D01*
X294000000Y-193500000D02*
X294000000Y-192000000D01*
X296950000Y-187750000D02*
X294000000Y-187750000D01*
D69*
X268000000Y-137500000D02*
X262000000Y-131500000D01*
D70*
X294000000Y-187750000D02*
X294000000Y-180300000D01*
D68*
X285500000Y-108250000D02*
X285500000Y-116650000D01*
D69*
X265200000Y-152300000D02*
X266350000Y-151150000D01*
X266350000Y-151150000D02*
X268000000Y-149500000D01*
X285250000Y-116900000D02*
X263600000Y-116900000D01*
D70*
X316200000Y-182500000D02*
X316200000Y-188400000D01*
X296100000Y-106200000D02*
X296100000Y-116700000D01*
D68*
X285500000Y-116650000D02*
X285250000Y-116900000D01*
D69*
X268000000Y-149500000D02*
X268000000Y-137500000D01*
X258740000Y-158760000D02*
X265200000Y-152300000D01*
D70*
X294000000Y-194700000D02*
X294000000Y-193500000D01*
X312450000Y-106200000D02*
X315400000Y-106200000D01*
X296100000Y-98200000D02*
X296100000Y-106200000D01*
X314755000Y-181055000D02*
X316200000Y-182500000D01*
D68*
X279400000Y-180300000D02*
X294000000Y-180300000D01*
D70*
X294000000Y-177600000D02*
X294000000Y-179500000D01*
D69*
X262000000Y-131500000D02*
X262000000Y-123750000D01*
X310250000Y-116900000D02*
X296300000Y-116900000D01*
X334500000Y-103500000D02*
X334500000Y-108000000D01*
D70*
X316200000Y-188400000D02*
X308500000Y-196100000D01*
D69*
X296300000Y-116900000D02*
X285250000Y-116900000D01*
D68*
X329762500Y-103500000D02*
X334500000Y-103500000D01*
D66*
X310250000Y-150750000D02*
X310250000Y-153450000D01*
D69*
X334500000Y-103500000D02*
X334500000Y-81400000D01*
D70*
X296100000Y-116700000D02*
X296300000Y-116900000D01*
X306300000Y-96175000D02*
X308887500Y-96175000D01*
D68*
X272200000Y-159300000D02*
X272200000Y-173100000D01*
D70*
X295400000Y-196100000D02*
X294000000Y-194700000D01*
X308500000Y-196100000D02*
X295400000Y-196100000D01*
X294000000Y-180300000D02*
X294000000Y-179500000D01*
D69*
X310250000Y-116900000D02*
X310250000Y-144750000D01*
X325600000Y-116900000D02*
X310250000Y-116900000D01*
D68*
X265200000Y-152300000D02*
X272200000Y-159300000D01*
D70*
X297000000Y-193500000D02*
X294000000Y-193500000D01*
X296950000Y-176750000D02*
X294850000Y-176750000D01*
D69*
X310250000Y-144750000D02*
X310250000Y-150750000D01*
X334500000Y-108000000D02*
X325600000Y-116900000D01*
D68*
X272200000Y-173100000D02*
X279400000Y-180300000D01*
D70*
X310510000Y-181055000D02*
X314755000Y-181055000D01*
D66*
X314800000Y-144750000D02*
X310250000Y-144750000D01*
D68*
%TO.N,/High Voltage Supplies/HV_COM*%
X175250000Y-202000000D02*
X164750000Y-191500000D01*
X210750000Y-202000000D02*
X175250000Y-202000000D01*
X163526200Y-180526200D02*
X160500000Y-180526200D01*
X164750000Y-181750000D02*
X163526200Y-180526200D01*
X213420000Y-199330000D02*
X210750000Y-202000000D01*
X164750000Y-191500000D02*
X164750000Y-181750000D01*
X213420000Y-194500000D02*
X213420000Y-199330000D01*
D66*
%TO.N,/High Voltage Supplies/+68VDC*%
X197555000Y-75195000D02*
X187250000Y-85500000D01*
X197555000Y-73040000D02*
X197555000Y-75195000D01*
X187250000Y-85500000D02*
X178120000Y-85500000D01*
%TO.N,/High Voltage Supplies/-98VDC*%
X110500000Y-66750000D02*
X109682000Y-65932000D01*
X110500000Y-77250000D02*
X113500000Y-74250000D01*
X110500000Y-90250000D02*
X110500000Y-77250000D01*
X113500000Y-69750000D02*
X110500000Y-66750000D01*
X113210000Y-92960000D02*
X110500000Y-90250000D01*
X109682000Y-65932000D02*
X109682000Y-50000000D01*
X113500000Y-74250000D02*
X113500000Y-69750000D01*
X118445000Y-92960000D02*
X113210000Y-92960000D01*
%TO.N,/High Voltage Supplies/-110VDC*%
X117500000Y-85250000D02*
X114750000Y-82500000D01*
X114750000Y-82500000D02*
X114750000Y-78000000D01*
X142750000Y-77130000D02*
X137880000Y-82000000D01*
X117250000Y-67750000D02*
X113642000Y-64142000D01*
X117250000Y-75500000D02*
X117250000Y-67750000D01*
X142750000Y-76000000D02*
X142750000Y-77130000D01*
X137880000Y-82000000D02*
X128750000Y-82000000D01*
X128750000Y-82000000D02*
X125500000Y-85250000D01*
X113642000Y-64142000D02*
X113642000Y-50000000D01*
X114750000Y-78000000D02*
X117250000Y-75500000D01*
X125500000Y-85250000D02*
X117500000Y-85250000D01*
%TO.N,/-12VU*%
X214875000Y-94900000D02*
X213500000Y-94900000D01*
X216500000Y-121750000D02*
X216500000Y-96525000D01*
X216500000Y-96525000D02*
X214875000Y-94900000D01*
D67*
X238935000Y-144600000D02*
X217900000Y-144600000D01*
D66*
%TO.N,/+12V_DISP*%
X123250000Y-64750000D02*
X123250000Y-61250000D01*
X123555000Y-74040000D02*
X123555000Y-73992500D01*
X123555000Y-74040000D02*
X122040000Y-74040000D01*
X120500000Y-67500000D02*
X123250000Y-64750000D01*
X123250000Y-60500000D02*
X123250000Y-56626000D01*
X120500000Y-72500000D02*
X120500000Y-67500000D01*
X123000000Y-61000000D02*
X123250000Y-61250000D01*
X123250000Y-56626000D02*
X121562000Y-54938000D01*
X120000000Y-61000000D02*
X123000000Y-61000000D01*
X123250000Y-61250000D02*
X123250000Y-60500000D01*
X122040000Y-74040000D02*
X120500000Y-72500000D01*
X121562000Y-54938000D02*
X121562000Y-50000000D01*
X126880000Y-60500000D02*
X123250000Y-60500000D01*
D69*
%TO.N,/12V Supplies/+12V_REG*%
X282340000Y-151250000D02*
X282340000Y-160500000D01*
D68*
X296937500Y-184962500D02*
X296900000Y-185000000D01*
D67*
X282250000Y-160590000D02*
X282340000Y-160500000D01*
X291650000Y-161750000D02*
X283590000Y-161750000D01*
D68*
X296937500Y-182250000D02*
X296937500Y-184962500D01*
X296937500Y-182250000D02*
X295250000Y-182250000D01*
D67*
X282250000Y-165000000D02*
X282250000Y-160590000D01*
X283590000Y-161750000D02*
X282340000Y-160500000D01*
D72*
%TO.N,/12V Supplies/-12V_REG*%
X206250000Y-110750000D02*
X206250000Y-92250000D01*
X206250000Y-92250000D02*
X211317621Y-87182379D01*
X211317621Y-87182379D02*
X211317621Y-84000000D01*
X207750000Y-112250000D02*
X206250000Y-110750000D01*
X208700000Y-112250000D02*
X207750000Y-112250000D01*
D69*
%TO.N,/+5V_F*%
X184000000Y-58000000D02*
X207000000Y-58000000D01*
X257500000Y-60000000D02*
X301000000Y-60000000D01*
D71*
X175620000Y-50000000D02*
X179580000Y-50000000D01*
X179580000Y-53420000D02*
X179500000Y-53500000D01*
D69*
X207000000Y-58000000D02*
X209000000Y-60000000D01*
D66*
X166000000Y-55750000D02*
X127500000Y-55750000D01*
D69*
X179500000Y-53500000D02*
X184000000Y-58000000D01*
D66*
X167700000Y-50000000D02*
X167700000Y-54050000D01*
D71*
X179580000Y-50000000D02*
X179580000Y-53420000D01*
D66*
X167700000Y-54050000D02*
X166000000Y-55750000D01*
X258540000Y-74040000D02*
X257250000Y-72750000D01*
X274250000Y-84500000D02*
X277375000Y-84500000D01*
D71*
X171660000Y-50000000D02*
X175620000Y-50000000D01*
D69*
X252500000Y-60000000D02*
X257500000Y-60000000D01*
D66*
X127500000Y-55750000D02*
X125522000Y-53772000D01*
X271810000Y-82060000D02*
X274250000Y-84500000D01*
X261500000Y-74040000D02*
X268960000Y-74040000D01*
X269000000Y-76130000D02*
X269000000Y-74000000D01*
X271810000Y-78940000D02*
X269000000Y-76130000D01*
X271810000Y-69440000D02*
X269000000Y-72250000D01*
X269000000Y-74000000D02*
X269000000Y-72250000D01*
X257250000Y-72750000D02*
X257250000Y-60250000D01*
X261500000Y-74040000D02*
X258540000Y-74040000D01*
X257250000Y-60250000D02*
X257500000Y-60000000D01*
X268960000Y-74040000D02*
X269000000Y-74000000D01*
D71*
X167700000Y-50000000D02*
X171660000Y-50000000D01*
D66*
X271810000Y-78940000D02*
X271810000Y-82060000D01*
X125522000Y-53772000D02*
X125522000Y-50000000D01*
D69*
X209000000Y-60000000D02*
X252500000Y-60000000D01*
D68*
%TO.N,Net-(CN7-Pin_1)*%
X255920000Y-211580000D02*
X255920000Y-221361000D01*
X260891001Y-206608999D02*
X255920000Y-211580000D01*
X260891001Y-201784000D02*
X260891001Y-206608999D01*
%TO.N,Net-(CN7-Pin_3)*%
X248000000Y-202240000D02*
X251790000Y-198450000D01*
X248000000Y-221361000D02*
X248000000Y-202240000D01*
D69*
%TO.N,Net-(CN8-Pin_6)*%
X272540000Y-226210000D02*
X272500000Y-226250000D01*
X302500000Y-226250000D02*
X276500000Y-226250000D01*
X272540000Y-221361000D02*
X272540000Y-226210000D01*
X264750000Y-226250000D02*
X264620000Y-226120000D01*
X268500000Y-226250000D02*
X264750000Y-226250000D01*
X264620000Y-226120000D02*
X264620000Y-221361000D01*
X272500000Y-226250000D02*
X268500000Y-226250000D01*
X268580000Y-221361000D02*
X268580000Y-226170000D01*
X268580000Y-226170000D02*
X268500000Y-226250000D01*
X276500000Y-226250000D02*
X272500000Y-226250000D01*
X305040000Y-223710000D02*
X302500000Y-226250000D01*
X276500000Y-221361000D02*
X276500000Y-226250000D01*
X305040000Y-221361000D02*
X305040000Y-223710000D01*
%TO.N,Net-(CN8-Pin_1)*%
X277687000Y-214580000D02*
X266891000Y-203784000D01*
X284500000Y-214500000D02*
X284420000Y-214580000D01*
D71*
X292500000Y-214500000D02*
X296000000Y-214500000D01*
X292340000Y-214660000D02*
X292500000Y-214500000D01*
D69*
X284420000Y-214580000D02*
X277687000Y-214580000D01*
D71*
X290500000Y-214500000D02*
X288500000Y-214500000D01*
X292340000Y-221361000D02*
X292340000Y-214660000D01*
X296300000Y-214800000D02*
X296000000Y-214500000D01*
X284420000Y-221361000D02*
X284420000Y-214580000D01*
X296300000Y-221361000D02*
X296300000Y-214800000D01*
X290500000Y-214500000D02*
X292500000Y-214500000D01*
X288380000Y-221361000D02*
X288380000Y-214620000D01*
X288500000Y-214500000D02*
X284500000Y-214500000D01*
X288380000Y-214620000D02*
X288500000Y-214500000D01*
D69*
%TO.N,Net-(D13-K)*%
X238935000Y-162700000D02*
X228820000Y-162700000D01*
X228820000Y-162700000D02*
X224120000Y-158000000D01*
D70*
%TO.N,Net-(U1-EN)*%
X305100000Y-96300000D02*
X304062500Y-96300000D01*
X305625000Y-96825000D02*
X305100000Y-96300000D01*
X308887500Y-96825000D02*
X305625000Y-96825000D01*
%TO.N,Net-(U1-VCC)*%
X306300000Y-95000000D02*
X306300000Y-93000000D01*
X306800000Y-92500000D02*
X310137500Y-92500000D01*
X306300000Y-93000000D02*
X306800000Y-92500000D01*
X306825000Y-95525000D02*
X306300000Y-95000000D01*
X308887500Y-95525000D02*
X306825000Y-95525000D01*
%TO.N,Net-(U1-SS)*%
X307125000Y-98775000D02*
X308887500Y-98775000D01*
X306600000Y-99300000D02*
X307125000Y-98775000D01*
X307600000Y-109600000D02*
X307600000Y-102800000D01*
X307600000Y-102800000D02*
X306600000Y-101800000D01*
X306200000Y-111000000D02*
X307600000Y-109600000D01*
X306600000Y-101800000D02*
X306600000Y-99300000D01*
X305062500Y-111000000D02*
X306200000Y-111000000D01*
%TO.N,Net-(U1-BST)*%
X318900000Y-98400000D02*
X318900000Y-111600000D01*
X318900000Y-111600000D02*
X317800000Y-112700000D01*
X317800000Y-112700000D02*
X312462500Y-112700000D01*
X317300000Y-96800000D02*
X314637500Y-96800000D01*
X314637500Y-96800000D02*
X314612500Y-96825000D01*
%TO.N,Net-(Q1-S)*%
X315300000Y-111000000D02*
X317800000Y-108500000D01*
X309337500Y-109462500D02*
X309350000Y-109450000D01*
X316400000Y-98100000D02*
X314637500Y-98100000D01*
X323190000Y-92790000D02*
X323200000Y-92800000D01*
X314637500Y-98100000D02*
X314612500Y-98125000D01*
X318600000Y-93300000D02*
X321700000Y-93300000D01*
X309337500Y-111000000D02*
X315300000Y-111000000D01*
X321700000Y-93300000D02*
X322210000Y-92790000D01*
X317800000Y-98380761D02*
X317800000Y-108500000D01*
X316400000Y-98100000D02*
X317519239Y-98100000D01*
X309337500Y-111000000D02*
X309337500Y-109462500D01*
X317519239Y-98100000D02*
X317800000Y-98380761D01*
X322210000Y-92790000D02*
X323190000Y-92790000D01*
X309337500Y-112700000D02*
X309337500Y-111000000D01*
D66*
%TO.N,Net-(D5-K)*%
X130250000Y-107750000D02*
X126255000Y-107750000D01*
X133000000Y-110500000D02*
X130250000Y-107750000D01*
X133000000Y-120000000D02*
X133000000Y-110500000D01*
X145500000Y-132500000D02*
X133000000Y-120000000D01*
D68*
%TO.N,Net-(D7-A)*%
X168000000Y-122500000D02*
X161500000Y-116000000D01*
X173000000Y-122500000D02*
X168000000Y-122500000D01*
D66*
X188750000Y-107750000D02*
X182500000Y-107750000D01*
X182500000Y-107750000D02*
X180250000Y-105500000D01*
D68*
X161500000Y-116000000D02*
X161500000Y-113150000D01*
D66*
X180250000Y-105500000D02*
X177850000Y-105500000D01*
X197555000Y-100000000D02*
X192500000Y-100000000D01*
X192500000Y-104000000D02*
X188750000Y-107750000D01*
D68*
X187500000Y-95000000D02*
X192500000Y-100000000D01*
D66*
X192500000Y-100000000D02*
X192500000Y-104000000D01*
D68*
X161500000Y-113150000D02*
X165150000Y-109500000D01*
X178120000Y-95000000D02*
X187500000Y-95000000D01*
D72*
%TO.N,Net-(U2-VCC)*%
X314205000Y-181705000D02*
X310510000Y-181705000D01*
X315000000Y-182500000D02*
X314205000Y-181705000D01*
X315000000Y-188250000D02*
X315000000Y-182500000D01*
X300125000Y-193500000D02*
X309750000Y-193500000D01*
X309750000Y-193500000D02*
X315000000Y-188250000D01*
%TO.N,Net-(U2-ADJ)*%
X304305000Y-181055000D02*
X306210000Y-181055000D01*
X302750000Y-179500000D02*
X304305000Y-181055000D01*
D70*
X300050000Y-179487500D02*
X300062500Y-179500000D01*
D72*
X300062500Y-179500000D02*
X302750000Y-179500000D01*
D70*
X300050000Y-176750000D02*
X300050000Y-179487500D01*
D72*
%TO.N,Net-(U2-FB)*%
X300355000Y-182355000D02*
X306210000Y-182355000D01*
X295250000Y-190500000D02*
X296950000Y-190500000D01*
X300062500Y-182250000D02*
X300250000Y-182250000D01*
X300000000Y-185000000D02*
X302000000Y-185000000D01*
X300250000Y-182250000D02*
X300355000Y-182355000D01*
D68*
X300062500Y-184937500D02*
X300000000Y-185000000D01*
X300062500Y-182250000D02*
X300062500Y-184937500D01*
D70*
%TO.N,Net-(U1-FB)*%
X308887500Y-97475000D02*
X308862500Y-97450000D01*
X305050000Y-104500000D02*
X305050000Y-101250000D01*
X305050000Y-107737500D02*
X305062500Y-107750000D01*
X305050000Y-98250000D02*
X305050000Y-101250000D01*
X305850000Y-97450000D02*
X305050000Y-98250000D01*
X305050000Y-104500000D02*
X305050000Y-107737500D01*
X308862500Y-97450000D02*
X305850000Y-97450000D01*
X305025000Y-104525000D02*
X305050000Y-104500000D01*
%TO.N,/5V_Supply/+5V*%
X301950000Y-101250000D02*
X298350000Y-101250000D01*
D68*
X298200000Y-101100000D02*
X298200000Y-94400000D01*
X302000000Y-72000000D02*
X302000000Y-90600000D01*
X298200000Y-94400000D02*
X302000000Y-90600000D01*
D70*
X298350000Y-101250000D02*
X298200000Y-101100000D01*
X301937500Y-107750000D02*
X300450000Y-107750000D01*
D68*
X303400000Y-70600000D02*
X306900000Y-70600000D01*
X302000000Y-72000000D02*
X303400000Y-70600000D01*
D70*
X300450000Y-107750000D02*
X298200000Y-105500000D01*
X298200000Y-101100000D02*
X298200000Y-105500000D01*
D68*
%TO.N,Net-(D2-K)*%
X292500000Y-75000000D02*
X290990000Y-75000000D01*
X290990000Y-75000000D02*
X287050000Y-78940000D01*
%TO.N,Net-(D2-REF)*%
X276810000Y-74190000D02*
X271810000Y-74190000D01*
X289480000Y-69440000D02*
X292500000Y-72460000D01*
X287050000Y-69440000D02*
X281560000Y-69440000D01*
X281560000Y-69440000D02*
X276810000Y-74190000D01*
X287050000Y-69440000D02*
X289480000Y-69440000D01*
D67*
%TO.N,Net-(D4-K)*%
X302750000Y-161750000D02*
X302750000Y-167750000D01*
X306250000Y-171250000D02*
X308500000Y-171250000D01*
D68*
X312155000Y-170845000D02*
X311750000Y-171250000D01*
D67*
X309750000Y-171250000D02*
X311750000Y-171250000D01*
X302750000Y-167750000D02*
X306250000Y-171250000D01*
D68*
X310885000Y-168355000D02*
X310885000Y-170385000D01*
X308345000Y-168355000D02*
X308345000Y-171095000D01*
D67*
X308500000Y-171250000D02*
X309750000Y-171250000D01*
D68*
X310885000Y-170385000D02*
X311750000Y-171250000D01*
D67*
X311750000Y-171250000D02*
X318500000Y-171250000D01*
D68*
X309615000Y-168355000D02*
X309615000Y-171115000D01*
X309615000Y-171115000D02*
X309750000Y-171250000D01*
X308345000Y-171095000D02*
X308500000Y-171250000D01*
X312155000Y-168355000D02*
X312155000Y-170845000D01*
D66*
%TO.N,Net-(D6-K)*%
X169000000Y-70500000D02*
X164650000Y-70500000D01*
X171250000Y-93000000D02*
X171250000Y-78250000D01*
X178120000Y-75500000D02*
X174000000Y-75500000D01*
X174000000Y-75500000D02*
X169000000Y-70500000D01*
X171250000Y-78250000D02*
X174000000Y-75500000D01*
%TO.N,Net-(D6-A)*%
X177350000Y-70500000D02*
X181000000Y-70500000D01*
X183000000Y-72000000D02*
X186640000Y-72000000D01*
X181000000Y-70500000D02*
X182500000Y-72000000D01*
X183000000Y-75620000D02*
X183000000Y-72000000D01*
X182500000Y-72000000D02*
X183000000Y-72000000D01*
X178120000Y-80500000D02*
X183000000Y-75620000D01*
%TO.N,Net-(D8-K)*%
X182250000Y-100500000D02*
X186640000Y-100500000D01*
X182000000Y-100250000D02*
X182250000Y-100500000D01*
X178250000Y-100250000D02*
X182000000Y-100250000D01*
%TO.N,Net-(D9-K)*%
X190500000Y-69500000D02*
X190500000Y-72500000D01*
X177350000Y-66000000D02*
X187000000Y-66000000D01*
X190500000Y-72500000D02*
X189730000Y-73270000D01*
X187000000Y-66000000D02*
X190500000Y-69500000D01*
X189730000Y-73270000D02*
X186640000Y-73270000D01*
X192040000Y-67960000D02*
X190500000Y-69500000D01*
X197555000Y-67960000D02*
X192040000Y-67960000D01*
D72*
%TO.N,Net-(Q1-G)*%
X331750000Y-96565686D02*
X329415686Y-98900000D01*
X323084314Y-98900000D02*
X321659315Y-97475000D01*
X329415686Y-98900000D02*
X323084314Y-98900000D01*
X331750000Y-84750000D02*
X331750000Y-96565686D01*
X321659315Y-97475000D02*
X314612500Y-97475000D01*
%TO.N,Net-(Q2-G)*%
X331250000Y-91250000D02*
X331250000Y-96500000D01*
X320925000Y-96175000D02*
X314612500Y-96175000D01*
X329250000Y-98500000D02*
X323250000Y-98500000D01*
X330800000Y-90800000D02*
X331250000Y-91250000D01*
X331250000Y-96500000D02*
X329250000Y-98500000D01*
X323250000Y-98500000D02*
X320925000Y-96175000D01*
D68*
%TO.N,Net-(U2-ISEN)*%
X312155000Y-161400000D02*
X312155000Y-160405000D01*
X309615000Y-162890000D02*
X309615000Y-160135000D01*
D72*
X313800000Y-161400000D02*
X312155000Y-161400000D01*
X314700000Y-162300000D02*
X313800000Y-161400000D01*
D68*
X312155000Y-161500000D02*
X312155000Y-161400000D01*
X310885000Y-160365000D02*
X311000000Y-160250000D01*
D70*
X311405000Y-183005000D02*
X311800000Y-183400000D01*
X312300000Y-183900000D02*
X313000000Y-183900000D01*
D68*
X310885000Y-162890000D02*
X310885000Y-160365000D01*
D70*
X310510000Y-183005000D02*
X311405000Y-183005000D01*
X311800000Y-183400000D02*
X312300000Y-183900000D01*
D68*
X309615000Y-160135000D02*
X309750000Y-160000000D01*
X312155000Y-162890000D02*
X312155000Y-161500000D01*
D72*
X317600000Y-162300000D02*
X314700000Y-162300000D01*
D68*
X312155000Y-160405000D02*
X312000000Y-160250000D01*
D72*
%TO.N,Net-(Q3-G)*%
X312655000Y-182355000D02*
X310510000Y-182355000D01*
X308345000Y-162890000D02*
X308345000Y-161445000D01*
X312700000Y-182400000D02*
X312655000Y-182355000D01*
X308345000Y-161445000D02*
X307800000Y-160900000D01*
D70*
%TO.N,Net-(U1-RON)*%
X307100000Y-101300000D02*
X307100000Y-99700000D01*
X309350000Y-103550000D02*
X307100000Y-101300000D01*
X307375000Y-99425000D02*
X308887500Y-99425000D01*
X309350000Y-106200000D02*
X309350000Y-103550000D01*
X307100000Y-99700000D02*
X307375000Y-99425000D01*
%TO.N,Net-(U1-ILIM)*%
X315925000Y-99425000D02*
X314612500Y-99425000D01*
X314750000Y-109450000D02*
X314800000Y-109400000D01*
X316600000Y-107600000D02*
X316600000Y-100100000D01*
X314800000Y-109400000D02*
X316600000Y-107600000D01*
X312450000Y-109450000D02*
X314750000Y-109450000D01*
X316600000Y-100100000D02*
X315925000Y-99425000D01*
D72*
%TO.N,Net-(U2-RT)*%
X303250000Y-183500000D02*
X303250000Y-186000000D01*
X301500000Y-187750000D02*
X300050000Y-187750000D01*
X303455000Y-181705000D02*
X303250000Y-181500000D01*
X303250000Y-186000000D02*
X301500000Y-187750000D01*
X306210000Y-181705000D02*
X303455000Y-181705000D01*
D66*
%TO.N,Net-(TR2-E)*%
X185750000Y-97500000D02*
X169750000Y-97500000D01*
X186640000Y-98390000D02*
X185750000Y-97500000D01*
X169750000Y-97500000D02*
X167250000Y-95000000D01*
X186640000Y-99230000D02*
X186640000Y-98390000D01*
X167250000Y-95000000D02*
X162880000Y-95000000D01*
%TO.N,Net-(TR6-C)*%
X126270000Y-94750000D02*
X125520000Y-95500000D01*
X125520000Y-95500000D02*
X118445000Y-95500000D01*
%TO.N,Net-(TR6-B)*%
X130750000Y-96000000D02*
X128710000Y-98040000D01*
X129620000Y-87500000D02*
X130750000Y-88630000D01*
X128710000Y-98040000D02*
X118445000Y-98040000D01*
X130750000Y-88630000D02*
X130750000Y-96000000D01*
D72*
%TO.N,Net-(U3-ADJ)*%
X211000000Y-91500000D02*
X213500000Y-91500000D01*
X211750000Y-104000000D02*
X209500000Y-101750000D01*
X209500000Y-93000000D02*
X211000000Y-91500000D01*
X211750000Y-107750000D02*
X211750000Y-104000000D01*
X209500000Y-101750000D02*
X209500000Y-93000000D01*
X211750000Y-107750000D02*
X211750000Y-112200000D01*
X211750000Y-112200000D02*
X211800000Y-112250000D01*
D67*
%TO.N,/+32VA_F*%
X117500000Y-192500000D02*
X117500000Y-174750000D01*
X128250000Y-194250000D02*
X119250000Y-194250000D01*
X117632323Y-140750000D02*
X117632323Y-135500000D01*
X117632323Y-135500000D02*
X117632323Y-122500000D01*
D66*
X112370000Y-118000000D02*
X112370000Y-122370000D01*
D67*
X130702400Y-196702400D02*
X128250000Y-194250000D01*
X117500000Y-161500000D02*
X117632323Y-161367677D01*
D66*
X112370000Y-122370000D02*
X112500000Y-122500000D01*
D67*
X135455800Y-196702400D02*
X130702400Y-196702400D01*
D66*
X113250000Y-143750000D02*
X117632323Y-143750000D01*
D67*
X117632323Y-161367677D02*
X117632323Y-143750000D01*
X112500000Y-122500000D02*
X104000000Y-122500000D01*
X104000000Y-122500000D02*
X98500000Y-128000000D01*
X117632323Y-122500000D02*
X112500000Y-122500000D01*
X117632323Y-143750000D02*
X117632323Y-140750000D01*
X119250000Y-194250000D02*
X117500000Y-192500000D01*
D69*
%TO.N,/+18V_F*%
X148000000Y-199500000D02*
X142000000Y-193500000D01*
D71*
X106605000Y-197480000D02*
X112980000Y-197480000D01*
D66*
X133750000Y-101500000D02*
X134250000Y-101000000D01*
D71*
X106605000Y-189560000D02*
X112940000Y-189560000D01*
X112980000Y-197480000D02*
X113000000Y-197500000D01*
D69*
X113000000Y-193500000D02*
X113000000Y-197500000D01*
D71*
X112560000Y-201440000D02*
X113000000Y-201000000D01*
D66*
X129250000Y-70500000D02*
X127710000Y-68960000D01*
D71*
X112940000Y-189560000D02*
X113000000Y-189500000D01*
D66*
X94000000Y-147750000D02*
X94000000Y-116250000D01*
D69*
X142000000Y-171000000D02*
X138500000Y-167500000D01*
D71*
X112980000Y-193520000D02*
X113000000Y-193500000D01*
D69*
X138500000Y-167500000D02*
X117500000Y-167500000D01*
X113000000Y-172000000D02*
X113000000Y-189500000D01*
X115625000Y-169375000D02*
X113000000Y-172000000D01*
D66*
X120000000Y-80000000D02*
X127250000Y-80000000D01*
D69*
X113000000Y-189500000D02*
X113000000Y-193500000D01*
X117500000Y-167500000D02*
X115625000Y-169375000D01*
D66*
X115625000Y-169375000D02*
X94000000Y-147750000D01*
D71*
X106605000Y-201440000D02*
X112560000Y-201440000D01*
D66*
X108750000Y-101500000D02*
X133750000Y-101500000D01*
X127710000Y-68960000D02*
X123555000Y-68960000D01*
X94000000Y-116250000D02*
X108750000Y-101500000D01*
D69*
X142000000Y-193500000D02*
X142000000Y-171000000D01*
X113000000Y-197500000D02*
X113000000Y-201000000D01*
D66*
X127250000Y-80000000D02*
X129250000Y-78000000D01*
D71*
X106605000Y-193520000D02*
X112980000Y-193520000D01*
D66*
X134250000Y-101000000D02*
X134250000Y-84500000D01*
X129250000Y-78000000D02*
X129250000Y-70500000D01*
D71*
%TO.N,/+32VB*%
X189660000Y-190590000D02*
X189750000Y-190500000D01*
D69*
X175000000Y-167750000D02*
X168750000Y-161500000D01*
X175000000Y-172500000D02*
X175000000Y-167750000D01*
D71*
X189660000Y-194500000D02*
X189660000Y-190590000D01*
D69*
X168750000Y-161500000D02*
X126000000Y-161500000D01*
X189750000Y-187250000D02*
X175000000Y-172500000D01*
X189750000Y-190500000D02*
X189750000Y-187250000D01*
D71*
%TO.N,/+32VB_F*%
X157030000Y-217030000D02*
X157030000Y-221361000D01*
D69*
X123000000Y-207120000D02*
X123000000Y-209948427D01*
X123000000Y-209948427D02*
X129021573Y-215970000D01*
D71*
X160990000Y-221361000D02*
X157030000Y-221361000D01*
D69*
X155970000Y-215970000D02*
X157030000Y-217030000D01*
X129021573Y-215970000D02*
X155970000Y-215970000D01*
%TO.N,/9VAC_1*%
X187250000Y-176000000D02*
X218000000Y-176000000D01*
D71*
X221340000Y-190410000D02*
X221500000Y-190250000D01*
D69*
X183656200Y-172406200D02*
X187250000Y-176000000D01*
X189906200Y-158000000D02*
X183656200Y-164250000D01*
D71*
X221340000Y-194500000D02*
X221340000Y-190410000D01*
D69*
X183656200Y-164250000D02*
X183656200Y-172406200D01*
X221500000Y-179500000D02*
X221500000Y-190250000D01*
X218000000Y-176000000D02*
X221500000Y-179500000D01*
%TO.N,Net-(D14-K)*%
X230500000Y-170500000D02*
X235000000Y-175000000D01*
X224120000Y-170500000D02*
X230500000Y-170500000D01*
X235000000Y-175000000D02*
X246000000Y-175000000D01*
X249500000Y-148335000D02*
X253235000Y-144600000D01*
X249500000Y-171500000D02*
X249500000Y-148335000D01*
X246000000Y-175000000D02*
X249500000Y-171500000D01*
%TD*%
%TA.AperFunction,Conductor*%
%TO.N,/+5V_F*%
G36*
X307042148Y-56818954D02*
G01*
X307122930Y-56872930D01*
X307227070Y-56977070D01*
X307281046Y-57057852D01*
X307300000Y-57153140D01*
X307300000Y-62946860D01*
X307281046Y-63042148D01*
X307227070Y-63122930D01*
X307122930Y-63227070D01*
X307042148Y-63281046D01*
X306946860Y-63300000D01*
X300553140Y-63300000D01*
X300457852Y-63281046D01*
X300377070Y-63227070D01*
X300272930Y-63122930D01*
X300218954Y-63042148D01*
X300200000Y-62946860D01*
X300200000Y-61735395D01*
X303918156Y-61735395D01*
X303964093Y-61811385D01*
X304083612Y-61930904D01*
X304228253Y-62018342D01*
X304228256Y-62018344D01*
X304389623Y-62068628D01*
X304389620Y-62068628D01*
X304459727Y-62074998D01*
X304459752Y-62075000D01*
X306140248Y-62075000D01*
X306140272Y-62074998D01*
X306210378Y-62068628D01*
X306371743Y-62018344D01*
X306371746Y-62018342D01*
X306516387Y-61930904D01*
X306635905Y-61811386D01*
X306681842Y-61735395D01*
X305299999Y-60353552D01*
X303918156Y-61735395D01*
X300200000Y-61735395D01*
X300200000Y-61126448D01*
X303820000Y-61126448D01*
X304946447Y-60000000D01*
X305653552Y-60000000D01*
X306779999Y-61126447D01*
X306780000Y-61126447D01*
X306780000Y-58873552D01*
X306779999Y-58873552D01*
X305653552Y-60000000D01*
X304946447Y-60000000D01*
X304946447Y-59999999D01*
X303820000Y-58873551D01*
X303820000Y-61126448D01*
X300200000Y-61126448D01*
X300200000Y-58264603D01*
X303918155Y-58264603D01*
X305299999Y-59646447D01*
X306681842Y-58264603D01*
X306635904Y-58188612D01*
X306516387Y-58069095D01*
X306371746Y-57981657D01*
X306371743Y-57981655D01*
X306210376Y-57931371D01*
X306210379Y-57931371D01*
X306140272Y-57925001D01*
X306140248Y-57925000D01*
X304459752Y-57925000D01*
X304459727Y-57925001D01*
X304389621Y-57931371D01*
X304228256Y-57981655D01*
X304228253Y-57981657D01*
X304083612Y-58069095D01*
X303964091Y-58188616D01*
X303918155Y-58264603D01*
X300200000Y-58264603D01*
X300200000Y-57153140D01*
X300218954Y-57057852D01*
X300272930Y-56977070D01*
X300377070Y-56872930D01*
X300457852Y-56818954D01*
X300553140Y-56800000D01*
X306946860Y-56800000D01*
X307042148Y-56818954D01*
G37*
%TD.AperFunction*%
%TD*%
%TA.AperFunction,Conductor*%
%TO.N,/+12VU*%
G36*
X263641585Y-109270213D02*
G01*
X263770780Y-109329214D01*
X263878119Y-109422224D01*
X263954906Y-109541708D01*
X263994921Y-109677985D01*
X264000000Y-109749000D01*
X264000000Y-124501000D01*
X263979787Y-124641585D01*
X263920786Y-124770780D01*
X263827776Y-124878119D01*
X263708292Y-124954906D01*
X263572015Y-124994921D01*
X263501000Y-125000000D01*
X249499000Y-125000000D01*
X249358415Y-124979787D01*
X249229220Y-124920786D01*
X249121881Y-124827776D01*
X249045094Y-124708292D01*
X249005079Y-124572015D01*
X249000000Y-124501000D01*
X249000000Y-111952175D01*
X250000000Y-111952175D01*
X250000000Y-113500000D01*
X251631399Y-113500000D01*
X251613811Y-113526322D01*
X251538429Y-113708311D01*
X251500000Y-113901509D01*
X251500000Y-114098491D01*
X251538429Y-114291689D01*
X251613811Y-114473678D01*
X251631399Y-114500000D01*
X250000000Y-114500000D01*
X250000000Y-116047824D01*
X250006402Y-116107374D01*
X250056647Y-116242089D01*
X250056648Y-116242090D01*
X250142811Y-116357188D01*
X250257909Y-116443351D01*
X250257910Y-116443352D01*
X250392625Y-116493597D01*
X250452175Y-116500000D01*
X252000000Y-116500000D01*
X252000000Y-114868601D01*
X252026322Y-114886189D01*
X252208311Y-114961571D01*
X252401509Y-115000000D01*
X252598491Y-115000000D01*
X252791689Y-114961571D01*
X252973678Y-114886189D01*
X253000000Y-114868601D01*
X253000000Y-116500000D01*
X254547825Y-116500000D01*
X254607374Y-116493597D01*
X254742089Y-116443352D01*
X254742090Y-116443351D01*
X254857188Y-116357188D01*
X254943351Y-116242090D01*
X254943352Y-116242089D01*
X254993597Y-116107374D01*
X255000000Y-116047824D01*
X255000000Y-114500000D01*
X253368601Y-114500000D01*
X253386189Y-114473678D01*
X253461571Y-114291689D01*
X253500000Y-114098491D01*
X253500000Y-113901509D01*
X253461571Y-113708311D01*
X253386189Y-113526322D01*
X253368601Y-113500000D01*
X255000000Y-113500000D01*
X255000000Y-111952175D01*
X254993597Y-111892625D01*
X254943352Y-111757910D01*
X254943351Y-111757909D01*
X254857188Y-111642811D01*
X254742090Y-111556648D01*
X254742089Y-111556647D01*
X254607374Y-111506402D01*
X254547825Y-111500000D01*
X253000000Y-111500000D01*
X253000000Y-113131398D01*
X252973678Y-113113811D01*
X252791689Y-113038429D01*
X252598491Y-113000000D01*
X252401509Y-113000000D01*
X252208311Y-113038429D01*
X252026322Y-113113811D01*
X252000000Y-113131398D01*
X252000000Y-111500000D01*
X250452175Y-111500000D01*
X250392625Y-111506402D01*
X250257910Y-111556647D01*
X250257909Y-111556648D01*
X250142811Y-111642811D01*
X250056648Y-111757909D01*
X250056647Y-111757910D01*
X250006402Y-111892625D01*
X250000000Y-111952175D01*
X249000000Y-111952175D01*
X249000000Y-109749000D01*
X249020213Y-109608415D01*
X249079214Y-109479220D01*
X249172224Y-109371881D01*
X249291708Y-109295094D01*
X249427985Y-109255079D01*
X249499000Y-109250000D01*
X263501000Y-109250000D01*
X263641585Y-109270213D01*
G37*
%TD.AperFunction*%
%TD*%
%TA.AperFunction,Conductor*%
%TO.N,/+12VU*%
G36*
X330742148Y-71068954D02*
G01*
X330822930Y-71122930D01*
X330927070Y-71227070D01*
X330981046Y-71307852D01*
X331000000Y-71403140D01*
X331000000Y-76300000D01*
X332496950Y-76300000D01*
X332592238Y-76318954D01*
X332673020Y-76372930D01*
X332726996Y-76453712D01*
X332745950Y-76549000D01*
X332726996Y-76644288D01*
X332708878Y-76679720D01*
X332615640Y-76830880D01*
X332560494Y-76997302D01*
X332550000Y-77100018D01*
X332550000Y-77637499D01*
X332550001Y-77637500D01*
X338949998Y-77637500D01*
X338949999Y-77637499D01*
X338949999Y-77100032D01*
X338949998Y-77100015D01*
X338939505Y-76997302D01*
X338884359Y-76830880D01*
X338791122Y-76679720D01*
X338757230Y-76588668D01*
X338760762Y-76491577D01*
X338801180Y-76403228D01*
X338872330Y-76337072D01*
X338963382Y-76303180D01*
X339003050Y-76300000D01*
X339546860Y-76300000D01*
X339642148Y-76318954D01*
X339722930Y-76372930D01*
X339827070Y-76477070D01*
X339881046Y-76557852D01*
X339900000Y-76653140D01*
X339900000Y-82046860D01*
X339881046Y-82142148D01*
X339827070Y-82222930D01*
X339722930Y-82327070D01*
X339642148Y-82381046D01*
X339546860Y-82400000D01*
X330853140Y-82400000D01*
X330757852Y-82381046D01*
X330677070Y-82327070D01*
X330572930Y-82222930D01*
X330518954Y-82142148D01*
X330500000Y-82046860D01*
X330500000Y-78400001D01*
X330500000Y-78400000D01*
X330500000Y-78150000D01*
X330250000Y-78150000D01*
X330249999Y-78150000D01*
X328073436Y-78150000D01*
X328010599Y-78137501D01*
X332550001Y-78137501D01*
X332550001Y-78674984D01*
X332560494Y-78777697D01*
X332615641Y-78944121D01*
X332707681Y-79093341D01*
X332831658Y-79217318D01*
X332980878Y-79309359D01*
X333147302Y-79364505D01*
X333250023Y-79374999D01*
X335499998Y-79374999D01*
X335500000Y-79374998D01*
X335500000Y-78137501D01*
X336000000Y-78137501D01*
X336000000Y-79374998D01*
X336000001Y-79374999D01*
X338249968Y-79374999D01*
X338249984Y-79374998D01*
X338352697Y-79364505D01*
X338519121Y-79309358D01*
X338668341Y-79217318D01*
X338792318Y-79093341D01*
X338884359Y-78944121D01*
X338939505Y-78777697D01*
X338949999Y-78674981D01*
X338950000Y-78674971D01*
X338950000Y-78137501D01*
X338949999Y-78137500D01*
X336000001Y-78137500D01*
X336000000Y-78137501D01*
X335500000Y-78137501D01*
X335499999Y-78137500D01*
X332550002Y-78137500D01*
X332550001Y-78137501D01*
X328010599Y-78137501D01*
X327978148Y-78131046D01*
X327897366Y-78077070D01*
X327843390Y-77996288D01*
X327824436Y-77901000D01*
X327843390Y-77805712D01*
X327851575Y-77787957D01*
X327948584Y-77597563D01*
X327948586Y-77597558D01*
X328019234Y-77380125D01*
X328033509Y-77290000D01*
X327045748Y-77290000D01*
X327067518Y-77252292D01*
X327105000Y-77112409D01*
X327105000Y-76967591D01*
X327067518Y-76827708D01*
X327045748Y-76790000D01*
X328033509Y-76790000D01*
X328019234Y-76699874D01*
X327948586Y-76482441D01*
X327948584Y-76482436D01*
X327844786Y-76278720D01*
X327792385Y-76206596D01*
X327751710Y-76118366D01*
X327747895Y-76021286D01*
X327781522Y-75930135D01*
X327844607Y-75860904D01*
X327912546Y-75810046D01*
X327998796Y-75694831D01*
X328049091Y-75559983D01*
X328055500Y-75500373D01*
X328055499Y-73499628D01*
X328049091Y-73440017D01*
X327998796Y-73305169D01*
X327912546Y-73189954D01*
X327797331Y-73103704D01*
X327717117Y-73073786D01*
X327662481Y-73053408D01*
X327602873Y-73047000D01*
X325507134Y-73047000D01*
X325507130Y-73047000D01*
X325507128Y-73047001D01*
X325494314Y-73048378D01*
X325447519Y-73053408D01*
X325447515Y-73053409D01*
X325312670Y-73103703D01*
X325197455Y-73189953D01*
X325197453Y-73189955D01*
X325111204Y-73305169D01*
X325060908Y-73440018D01*
X325054500Y-73499623D01*
X325054500Y-75500365D01*
X325054500Y-75500368D01*
X325054501Y-75500372D01*
X325056567Y-75519593D01*
X325060908Y-75559980D01*
X325060909Y-75559983D01*
X325111204Y-75694831D01*
X325197454Y-75810046D01*
X325197457Y-75810048D01*
X325197458Y-75810049D01*
X325265390Y-75860903D01*
X325330313Y-75933181D01*
X325362635Y-76024802D01*
X325357434Y-76121818D01*
X325317615Y-76206594D01*
X325265215Y-76278715D01*
X325265213Y-76278719D01*
X325161415Y-76482436D01*
X325161413Y-76482441D01*
X325090765Y-76699874D01*
X325076491Y-76790000D01*
X326064252Y-76790000D01*
X326042482Y-76827708D01*
X326005000Y-76967591D01*
X326005000Y-77112409D01*
X326042482Y-77252292D01*
X326064252Y-77290000D01*
X325076491Y-77290000D01*
X325090765Y-77380125D01*
X325161413Y-77597558D01*
X325161415Y-77597563D01*
X325258425Y-77787957D01*
X325284796Y-77881464D01*
X325273377Y-77977946D01*
X325225905Y-78062713D01*
X325149607Y-78122861D01*
X325056100Y-78149232D01*
X325036564Y-78150000D01*
X323353140Y-78150000D01*
X323257852Y-78131046D01*
X323177070Y-78077070D01*
X323072930Y-77972930D01*
X323018954Y-77892148D01*
X323000000Y-77796860D01*
X323000000Y-71403140D01*
X323018954Y-71307852D01*
X323072930Y-71227070D01*
X323177070Y-71122930D01*
X323257852Y-71068954D01*
X323353140Y-71050000D01*
X330646860Y-71050000D01*
X330742148Y-71068954D01*
G37*
%TD.AperFunction*%
%TD*%
%TA.AperFunction,Conductor*%
%TO.N,/5V_Supply/+5V*%
G36*
X321346288Y-56818954D02*
G01*
X321427070Y-56872930D01*
X321481046Y-56953712D01*
X321500000Y-57049000D01*
X321500000Y-65851000D01*
X321481046Y-65946288D01*
X321427070Y-66027070D01*
X321346288Y-66081046D01*
X321251000Y-66100000D01*
X315000000Y-66100000D01*
X315000000Y-66100001D01*
X315000000Y-77751000D01*
X314981046Y-77846288D01*
X314927070Y-77927070D01*
X314846288Y-77981046D01*
X314751000Y-78000000D01*
X306249000Y-78000000D01*
X306153712Y-77981046D01*
X306072930Y-77927070D01*
X306018954Y-77846288D01*
X306000000Y-77751000D01*
X306000000Y-74550001D01*
X307344100Y-74550001D01*
X307344100Y-76278232D01*
X307350501Y-76337771D01*
X307350503Y-76337778D01*
X307400746Y-76472487D01*
X307486910Y-76587587D01*
X307486912Y-76587589D01*
X307602012Y-76673753D01*
X307736721Y-76723996D01*
X307736728Y-76723998D01*
X307796267Y-76730399D01*
X307796275Y-76730400D01*
X310349999Y-76730400D01*
X310350000Y-76730399D01*
X310350000Y-74550001D01*
X310850000Y-74550001D01*
X310850000Y-76730399D01*
X310850001Y-76730400D01*
X313403725Y-76730400D01*
X313403732Y-76730399D01*
X313463271Y-76723998D01*
X313463278Y-76723996D01*
X313597987Y-76673753D01*
X313713087Y-76587589D01*
X313713089Y-76587587D01*
X313799253Y-76472487D01*
X313849496Y-76337778D01*
X313849498Y-76337771D01*
X313855899Y-76278232D01*
X313855900Y-76278225D01*
X313855900Y-74550001D01*
X313855899Y-74550000D01*
X310850001Y-74550000D01*
X310850000Y-74550001D01*
X310350000Y-74550001D01*
X310349999Y-74550000D01*
X307344101Y-74550000D01*
X307344100Y-74550001D01*
X306000000Y-74550001D01*
X306000000Y-72321767D01*
X307344100Y-72321767D01*
X307344100Y-74049999D01*
X307344101Y-74050000D01*
X310349999Y-74050000D01*
X310350000Y-74049999D01*
X310350000Y-71869601D01*
X310850000Y-71869601D01*
X310850000Y-74049999D01*
X310850001Y-74050000D01*
X313855899Y-74050000D01*
X313855900Y-74049999D01*
X313855900Y-72321775D01*
X313855899Y-72321767D01*
X313849498Y-72262228D01*
X313849496Y-72262221D01*
X313799253Y-72127512D01*
X313713089Y-72012412D01*
X313713087Y-72012410D01*
X313597987Y-71926246D01*
X313463278Y-71876003D01*
X313463271Y-71876001D01*
X313403732Y-71869600D01*
X310850001Y-71869600D01*
X310850000Y-71869601D01*
X310350000Y-71869601D01*
X310349999Y-71869600D01*
X307796267Y-71869600D01*
X307736728Y-71876001D01*
X307736721Y-71876003D01*
X307602012Y-71926246D01*
X307486912Y-72012410D01*
X307486910Y-72012412D01*
X307400746Y-72127512D01*
X307350503Y-72262221D01*
X307350501Y-72262228D01*
X307344100Y-72321767D01*
X306000000Y-72321767D01*
X306000000Y-64449000D01*
X306018954Y-64353712D01*
X306072930Y-64272930D01*
X306153712Y-64218954D01*
X306249000Y-64200000D01*
X308199999Y-64200000D01*
X308200000Y-64200000D01*
X308200000Y-62750001D01*
X317425001Y-62750001D01*
X317425001Y-63574984D01*
X317435494Y-63677699D01*
X317435495Y-63677702D01*
X317490640Y-63844119D01*
X317490641Y-63844121D01*
X317582681Y-63993341D01*
X317582684Y-63993345D01*
X317706654Y-64117315D01*
X317706658Y-64117318D01*
X317855878Y-64209358D01*
X317855879Y-64209359D01*
X318022298Y-64264504D01*
X318022305Y-64264505D01*
X318125023Y-64274999D01*
X318799998Y-64274999D01*
X318800000Y-64274998D01*
X318800000Y-62750001D01*
X319300000Y-62750001D01*
X319300000Y-64274998D01*
X319300001Y-64274999D01*
X319974968Y-64274999D01*
X319974984Y-64274998D01*
X320077699Y-64264505D01*
X320077702Y-64264504D01*
X320244119Y-64209359D01*
X320244121Y-64209358D01*
X320393341Y-64117318D01*
X320393345Y-64117315D01*
X320517315Y-63993345D01*
X320517318Y-63993341D01*
X320609358Y-63844121D01*
X320609359Y-63844120D01*
X320664504Y-63677701D01*
X320664505Y-63677694D01*
X320674999Y-63574981D01*
X320675000Y-63574971D01*
X320675000Y-62750001D01*
X320674999Y-62750000D01*
X319300001Y-62750000D01*
X319300000Y-62750001D01*
X318800000Y-62750001D01*
X318799999Y-62750000D01*
X317425002Y-62750000D01*
X317425001Y-62750001D01*
X308200000Y-62750001D01*
X308200000Y-61735395D01*
X308828156Y-61735395D01*
X308874093Y-61811385D01*
X308993612Y-61930904D01*
X309138253Y-62018342D01*
X309138256Y-62018344D01*
X309299623Y-62068628D01*
X309299620Y-62068628D01*
X309369727Y-62074998D01*
X309369752Y-62075000D01*
X311050248Y-62075000D01*
X311050272Y-62074998D01*
X311120378Y-62068628D01*
X311281743Y-62018344D01*
X311281746Y-62018342D01*
X311426387Y-61930904D01*
X311545905Y-61811386D01*
X311591842Y-61735395D01*
X311281465Y-61425018D01*
X317425000Y-61425018D01*
X317425000Y-62249999D01*
X317425001Y-62250000D01*
X318799999Y-62250000D01*
X318800000Y-62249999D01*
X318800000Y-60725001D01*
X319300000Y-60725001D01*
X319300000Y-62249999D01*
X319300001Y-62250000D01*
X320674998Y-62250000D01*
X320674999Y-62249999D01*
X320674999Y-61425032D01*
X320674998Y-61425015D01*
X320664505Y-61322300D01*
X320664504Y-61322297D01*
X320609359Y-61155880D01*
X320609358Y-61155878D01*
X320517318Y-61006658D01*
X320517315Y-61006654D01*
X320393345Y-60882684D01*
X320393341Y-60882681D01*
X320244121Y-60790641D01*
X320244120Y-60790640D01*
X320077701Y-60735495D01*
X320077694Y-60735494D01*
X319974981Y-60725000D01*
X319300001Y-60725000D01*
X319300000Y-60725001D01*
X318800000Y-60725001D01*
X318799999Y-60725000D01*
X318125023Y-60725000D01*
X318022300Y-60735494D01*
X318022297Y-60735495D01*
X317855880Y-60790640D01*
X317855878Y-60790641D01*
X317706658Y-60882681D01*
X317706654Y-60882684D01*
X317582684Y-61006654D01*
X317582681Y-61006658D01*
X317490641Y-61155878D01*
X317490640Y-61155879D01*
X317435495Y-61322298D01*
X317435494Y-61322305D01*
X317425000Y-61425018D01*
X311281465Y-61425018D01*
X310209999Y-60353552D01*
X308828156Y-61735395D01*
X308200000Y-61735395D01*
X308200000Y-61126448D01*
X308730000Y-61126448D01*
X309856447Y-60000000D01*
X310563552Y-60000000D01*
X311689999Y-61126447D01*
X311690000Y-61126447D01*
X311690000Y-58873552D01*
X311689999Y-58873552D01*
X310563552Y-60000000D01*
X309856447Y-60000000D01*
X309856447Y-59999999D01*
X308730000Y-58873551D01*
X308730000Y-61126448D01*
X308200000Y-61126448D01*
X308200000Y-58264603D01*
X308828155Y-58264603D01*
X310209999Y-59646447D01*
X311591842Y-58264603D01*
X311545904Y-58188612D01*
X311426387Y-58069095D01*
X311281746Y-57981657D01*
X311281743Y-57981655D01*
X311120376Y-57931371D01*
X311120379Y-57931371D01*
X311050272Y-57925001D01*
X311050248Y-57925000D01*
X309369752Y-57925000D01*
X309369727Y-57925001D01*
X309299621Y-57931371D01*
X309138256Y-57981655D01*
X309138253Y-57981657D01*
X308993612Y-58069095D01*
X308874091Y-58188616D01*
X308828155Y-58264603D01*
X308200000Y-58264603D01*
X308200000Y-57049000D01*
X308218954Y-56953712D01*
X308272930Y-56872930D01*
X308353712Y-56818954D01*
X308449000Y-56800000D01*
X321251000Y-56800000D01*
X321346288Y-56818954D01*
G37*
%TD.AperFunction*%
%TD*%
%TA.AperFunction,Conductor*%
%TO.N,GND*%
G36*
X339746288Y-59318954D02*
G01*
X339827070Y-59372930D01*
X339881046Y-59453712D01*
X339900000Y-59549000D01*
X339900000Y-74751000D01*
X339881046Y-74846288D01*
X339827070Y-74927070D01*
X339746288Y-74981046D01*
X339651000Y-75000000D01*
X331949000Y-75000000D01*
X331853712Y-74981046D01*
X331772930Y-74927070D01*
X331718954Y-74846288D01*
X331700000Y-74751000D01*
X331700000Y-72862501D01*
X332550001Y-72862501D01*
X332550001Y-73399984D01*
X332560494Y-73502697D01*
X332615641Y-73669121D01*
X332707681Y-73818341D01*
X332831658Y-73942318D01*
X332980878Y-74034359D01*
X333147302Y-74089505D01*
X333250023Y-74099999D01*
X335499998Y-74099999D01*
X335500000Y-74099998D01*
X335500000Y-72862501D01*
X336000000Y-72862501D01*
X336000000Y-74099998D01*
X336000001Y-74099999D01*
X338249968Y-74099999D01*
X338249984Y-74099998D01*
X338352697Y-74089505D01*
X338519121Y-74034358D01*
X338668341Y-73942318D01*
X338792318Y-73818341D01*
X338884359Y-73669121D01*
X338939505Y-73502697D01*
X338949999Y-73399981D01*
X338950000Y-73399971D01*
X338950000Y-72862501D01*
X338949999Y-72862500D01*
X336000001Y-72862500D01*
X336000000Y-72862501D01*
X335500000Y-72862501D01*
X335499999Y-72862500D01*
X332550002Y-72862500D01*
X332550001Y-72862501D01*
X331700000Y-72862501D01*
X331700000Y-71825018D01*
X332550000Y-71825018D01*
X332550000Y-72362499D01*
X332550001Y-72362500D01*
X335499999Y-72362500D01*
X335500000Y-72362499D01*
X335500000Y-71125001D01*
X336000000Y-71125001D01*
X336000000Y-72362499D01*
X336000001Y-72362500D01*
X338949998Y-72362500D01*
X338949999Y-72362499D01*
X338949999Y-71825032D01*
X338949998Y-71825015D01*
X338939505Y-71722302D01*
X338884358Y-71555878D01*
X338792318Y-71406658D01*
X338668341Y-71282681D01*
X338519121Y-71190640D01*
X338352697Y-71135494D01*
X338249981Y-71125000D01*
X336000001Y-71125000D01*
X336000000Y-71125001D01*
X335500000Y-71125001D01*
X335499999Y-71125000D01*
X333250023Y-71125000D01*
X333147302Y-71135494D01*
X332980878Y-71190641D01*
X332831658Y-71282681D01*
X332707681Y-71406658D01*
X332615640Y-71555878D01*
X332560494Y-71722302D01*
X332550000Y-71825018D01*
X331700000Y-71825018D01*
X331700000Y-66100001D01*
X331700000Y-66100000D01*
X331699999Y-66100000D01*
X323649000Y-66100000D01*
X323553712Y-66081046D01*
X323472930Y-66027070D01*
X323418954Y-65946288D01*
X323400000Y-65851000D01*
X323400000Y-63906508D01*
X323418954Y-63811220D01*
X323472930Y-63730438D01*
X323553712Y-63676462D01*
X323649000Y-63657508D01*
X323744288Y-63676462D01*
X323825070Y-63730438D01*
X323879046Y-63811220D01*
X323885362Y-63828188D01*
X323890641Y-63844122D01*
X323982681Y-63993341D01*
X323982684Y-63993345D01*
X324106654Y-64117315D01*
X324106658Y-64117318D01*
X324255878Y-64209358D01*
X324255879Y-64209359D01*
X324422298Y-64264504D01*
X324422305Y-64264505D01*
X324525023Y-64274999D01*
X325199998Y-64274999D01*
X325200000Y-64274998D01*
X325200000Y-62750001D01*
X325700000Y-62750001D01*
X325700000Y-64274998D01*
X325700001Y-64274999D01*
X326374968Y-64274999D01*
X326374984Y-64274998D01*
X326477699Y-64264505D01*
X326477702Y-64264504D01*
X326644119Y-64209359D01*
X326644121Y-64209358D01*
X326793341Y-64117318D01*
X326793345Y-64117315D01*
X326917315Y-63993345D01*
X326917318Y-63993341D01*
X327009358Y-63844121D01*
X327009359Y-63844120D01*
X327064504Y-63677701D01*
X327064505Y-63677694D01*
X327074999Y-63574981D01*
X327075000Y-63574971D01*
X327075000Y-62750001D01*
X327074999Y-62750000D01*
X325700001Y-62750000D01*
X325700000Y-62750001D01*
X325200000Y-62750001D01*
X325200000Y-60725001D01*
X325700000Y-60725001D01*
X325700000Y-62249999D01*
X325700001Y-62250000D01*
X327074998Y-62250000D01*
X327074999Y-62249999D01*
X327074999Y-61425032D01*
X327074998Y-61425015D01*
X327064505Y-61322300D01*
X327064504Y-61322297D01*
X327009359Y-61155880D01*
X327009358Y-61155878D01*
X326917318Y-61006658D01*
X326917315Y-61006654D01*
X326793345Y-60882684D01*
X326793341Y-60882681D01*
X326644121Y-60790641D01*
X326644120Y-60790640D01*
X326477701Y-60735495D01*
X326477694Y-60735494D01*
X326374981Y-60725000D01*
X325700001Y-60725000D01*
X325700000Y-60725001D01*
X325200000Y-60725001D01*
X325199999Y-60725000D01*
X324525023Y-60725000D01*
X324422300Y-60735494D01*
X324422297Y-60735495D01*
X324255880Y-60790640D01*
X324255878Y-60790641D01*
X324106658Y-60882681D01*
X324106654Y-60882684D01*
X323982684Y-61006654D01*
X323982681Y-61006658D01*
X323890641Y-61155878D01*
X323885361Y-61171814D01*
X323837396Y-61256303D01*
X323760750Y-61316006D01*
X323667091Y-61341833D01*
X323570677Y-61329852D01*
X323486188Y-61281887D01*
X323426485Y-61205241D01*
X323400658Y-61111582D01*
X323400000Y-61093491D01*
X323400000Y-59549000D01*
X323418954Y-59453712D01*
X323472930Y-59372930D01*
X323553712Y-59318954D01*
X323649000Y-59300000D01*
X339651000Y-59300000D01*
X339746288Y-59318954D01*
G37*
%TD.AperFunction*%
%TD*%
%TA.AperFunction,Conductor*%
%TO.N,GND*%
G36*
X229693039Y-68769685D02*
G01*
X229738794Y-68822489D01*
X229750000Y-68874000D01*
X229750000Y-75876000D01*
X229730315Y-75943039D01*
X229677511Y-75988794D01*
X229626000Y-76000000D01*
X226374000Y-76000000D01*
X226306961Y-75980315D01*
X226261206Y-75927511D01*
X226250000Y-75876000D01*
X226250000Y-68874000D01*
X226269685Y-68806961D01*
X226322489Y-68761206D01*
X226374000Y-68750000D01*
X229626000Y-68750000D01*
X229693039Y-68769685D01*
G37*
%TD.AperFunction*%
%TD*%
%TA.AperFunction,Conductor*%
%TO.N,GND*%
G36*
X213843039Y-130769685D02*
G01*
X213888794Y-130822489D01*
X213900000Y-130874000D01*
X213900000Y-134126000D01*
X213880315Y-134193039D01*
X213827511Y-134238794D01*
X213776000Y-134250000D01*
X192374000Y-134250000D01*
X192306961Y-134230315D01*
X192261206Y-134177511D01*
X192250000Y-134126000D01*
X192250000Y-130874000D01*
X192269685Y-130806961D01*
X192322489Y-130761206D01*
X192374000Y-130750000D01*
X213776000Y-130750000D01*
X213843039Y-130769685D01*
G37*
%TD.AperFunction*%
%TD*%
%TA.AperFunction,Conductor*%
%TO.N,Net-(Q1-S)*%
G36*
X323323393Y-78652570D02*
G01*
X323353140Y-78655500D01*
X323353145Y-78655500D01*
X324942048Y-78655500D01*
X325037336Y-78674454D01*
X325118118Y-78728430D01*
X325172094Y-78809212D01*
X325191048Y-78904500D01*
X325172094Y-78999788D01*
X325163906Y-79017549D01*
X325161414Y-79022439D01*
X325161413Y-79022441D01*
X325090765Y-79239874D01*
X325076491Y-79330000D01*
X326064252Y-79330000D01*
X326042482Y-79367708D01*
X326005000Y-79507591D01*
X326005000Y-79652409D01*
X326042482Y-79792292D01*
X326064252Y-79830000D01*
X325076491Y-79830000D01*
X325090765Y-79920125D01*
X325161413Y-80137558D01*
X325161415Y-80137563D01*
X325265213Y-80341280D01*
X325399592Y-80526236D01*
X325561263Y-80687907D01*
X325746220Y-80822286D01*
X325746219Y-80822286D01*
X325949936Y-80926084D01*
X325949941Y-80926086D01*
X326167375Y-80996734D01*
X326305000Y-81018532D01*
X326305000Y-80070747D01*
X326342708Y-80092518D01*
X326482591Y-80130000D01*
X326627409Y-80130000D01*
X326767292Y-80092518D01*
X326805000Y-80070747D01*
X326805000Y-81018531D01*
X326942624Y-80996734D01*
X327160058Y-80926086D01*
X327160063Y-80926084D01*
X327363780Y-80822286D01*
X327548736Y-80687907D01*
X327710407Y-80526236D01*
X327844786Y-80341280D01*
X327948584Y-80137563D01*
X327948586Y-80137558D01*
X328019234Y-79920125D01*
X328033509Y-79830000D01*
X327045748Y-79830000D01*
X327067518Y-79792292D01*
X327105000Y-79652409D01*
X327105000Y-79507591D01*
X327067518Y-79367708D01*
X327045748Y-79330000D01*
X328033509Y-79330000D01*
X328019234Y-79239874D01*
X327948586Y-79022441D01*
X327948585Y-79022439D01*
X327946094Y-79017549D01*
X327945099Y-79014023D01*
X327944843Y-79013404D01*
X327944916Y-79013373D01*
X327919720Y-78924042D01*
X327931137Y-78827560D01*
X327978607Y-78742792D01*
X328054903Y-78682642D01*
X328148410Y-78656268D01*
X328167952Y-78655500D01*
X329549290Y-78655500D01*
X329644578Y-78674454D01*
X329725360Y-78728430D01*
X329779336Y-78809212D01*
X329798290Y-78904500D01*
X329798289Y-78905150D01*
X329750921Y-97047053D01*
X329731718Y-97142291D01*
X329677762Y-97222701D01*
X329572889Y-97327300D01*
X329492040Y-97381170D01*
X329397052Y-97400000D01*
X323102376Y-97400000D01*
X323007088Y-97381046D01*
X322926306Y-97327070D01*
X322772930Y-97173694D01*
X322718954Y-97092912D01*
X322700000Y-96997624D01*
X322700000Y-89500001D01*
X322700000Y-89500000D01*
X322700000Y-89250000D01*
X322450000Y-89250000D01*
X322449999Y-89250000D01*
X306353140Y-89250000D01*
X306351245Y-89249623D01*
X325054500Y-89249623D01*
X325054500Y-91250365D01*
X325054500Y-91250368D01*
X325054501Y-91250372D01*
X325056567Y-91269593D01*
X325060908Y-91309980D01*
X325060909Y-91309983D01*
X325111204Y-91444831D01*
X325197454Y-91560046D01*
X325197457Y-91560048D01*
X325197458Y-91560049D01*
X325265390Y-91610903D01*
X325330313Y-91683181D01*
X325362635Y-91774802D01*
X325357434Y-91871818D01*
X325317615Y-91956594D01*
X325265215Y-92028715D01*
X325265213Y-92028719D01*
X325161415Y-92232436D01*
X325161413Y-92232441D01*
X325090765Y-92449874D01*
X325076491Y-92540000D01*
X326064252Y-92540000D01*
X326042482Y-92577708D01*
X326005000Y-92717591D01*
X326005000Y-92862409D01*
X326042482Y-93002292D01*
X326064252Y-93040000D01*
X325076491Y-93040000D01*
X325090765Y-93130125D01*
X325161413Y-93347558D01*
X325161415Y-93347563D01*
X325265213Y-93551280D01*
X325399592Y-93736236D01*
X325546932Y-93883576D01*
X325600908Y-93964358D01*
X325619862Y-94059646D01*
X325600908Y-94154934D01*
X325546932Y-94235715D01*
X325399216Y-94383431D01*
X325399213Y-94383435D01*
X325264785Y-94568458D01*
X325160952Y-94772241D01*
X325160949Y-94772248D01*
X325090277Y-94989757D01*
X325054500Y-95215636D01*
X325054500Y-95444363D01*
X325090277Y-95670242D01*
X325160949Y-95887751D01*
X325160952Y-95887758D01*
X325264783Y-96091538D01*
X325399214Y-96276566D01*
X325560934Y-96438286D01*
X325745962Y-96572717D01*
X325949742Y-96676548D01*
X326167255Y-96747222D01*
X326246703Y-96759805D01*
X326393136Y-96782999D01*
X326393143Y-96782999D01*
X326393146Y-96783000D01*
X326393149Y-96783000D01*
X326716851Y-96783000D01*
X326716854Y-96783000D01*
X326716857Y-96782999D01*
X326716863Y-96782999D01*
X326823572Y-96766097D01*
X326942745Y-96747222D01*
X327160258Y-96676548D01*
X327364038Y-96572717D01*
X327549066Y-96438286D01*
X327710786Y-96276566D01*
X327845217Y-96091538D01*
X327949048Y-95887758D01*
X328019722Y-95670245D01*
X328039530Y-95545184D01*
X328055499Y-95444363D01*
X328055500Y-95444351D01*
X328055500Y-95215648D01*
X328055499Y-95215636D01*
X328019722Y-94989757D01*
X328019722Y-94989755D01*
X327949048Y-94772242D01*
X327845217Y-94568462D01*
X327710786Y-94383434D01*
X327563064Y-94235712D01*
X327509091Y-94154934D01*
X327490137Y-94059646D01*
X327509091Y-93964358D01*
X327563067Y-93883576D01*
X327563068Y-93883576D01*
X327710403Y-93736241D01*
X327710405Y-93736238D01*
X327844786Y-93551280D01*
X327948584Y-93347563D01*
X327948586Y-93347558D01*
X328019234Y-93130125D01*
X328033509Y-93040000D01*
X327045748Y-93040000D01*
X327067518Y-93002292D01*
X327105000Y-92862409D01*
X327105000Y-92717591D01*
X327067518Y-92577708D01*
X327045748Y-92540000D01*
X328033509Y-92540000D01*
X328019234Y-92449874D01*
X327948586Y-92232441D01*
X327948584Y-92232436D01*
X327844786Y-92028720D01*
X327792385Y-91956596D01*
X327751710Y-91868366D01*
X327747895Y-91771286D01*
X327781522Y-91680135D01*
X327844607Y-91610904D01*
X327912546Y-91560046D01*
X327998796Y-91444831D01*
X328049091Y-91309983D01*
X328055500Y-91250373D01*
X328055499Y-89249628D01*
X328049091Y-89190017D01*
X327998796Y-89055169D01*
X327912546Y-88939954D01*
X327797331Y-88853704D01*
X327717117Y-88823786D01*
X327662481Y-88803408D01*
X327602873Y-88797000D01*
X325507134Y-88797000D01*
X325507130Y-88797000D01*
X325507128Y-88797001D01*
X325494314Y-88798378D01*
X325447519Y-88803408D01*
X325447515Y-88803409D01*
X325312670Y-88853703D01*
X325197455Y-88939953D01*
X325197453Y-88939955D01*
X325111204Y-89055169D01*
X325060908Y-89190018D01*
X325054500Y-89249623D01*
X306351245Y-89249623D01*
X306257852Y-89231046D01*
X306177070Y-89177070D01*
X306072930Y-89072930D01*
X306018954Y-88992148D01*
X306000000Y-88896860D01*
X306000000Y-84506801D01*
X307344100Y-84506801D01*
X307344100Y-86235032D01*
X307350501Y-86294571D01*
X307350503Y-86294578D01*
X307400746Y-86429287D01*
X307486910Y-86544387D01*
X307486912Y-86544389D01*
X307602012Y-86630553D01*
X307736721Y-86680796D01*
X307736728Y-86680798D01*
X307796267Y-86687199D01*
X307796275Y-86687200D01*
X310349999Y-86687200D01*
X310350000Y-86687199D01*
X310350000Y-84506801D01*
X310850000Y-84506801D01*
X310850000Y-86687199D01*
X310850001Y-86687200D01*
X313403725Y-86687200D01*
X313403732Y-86687199D01*
X313463271Y-86680798D01*
X313463278Y-86680796D01*
X313597987Y-86630553D01*
X313713087Y-86544389D01*
X313713089Y-86544387D01*
X313799253Y-86429287D01*
X313849496Y-86294578D01*
X313849498Y-86294571D01*
X313855899Y-86235032D01*
X313855900Y-86235025D01*
X313855900Y-84506801D01*
X313855899Y-84506800D01*
X310850001Y-84506800D01*
X310850000Y-84506801D01*
X310350000Y-84506801D01*
X310349999Y-84506800D01*
X307344101Y-84506800D01*
X307344100Y-84506801D01*
X306000000Y-84506801D01*
X306000000Y-82278567D01*
X307344100Y-82278567D01*
X307344100Y-84006799D01*
X307344101Y-84006800D01*
X310349999Y-84006800D01*
X310350000Y-84006799D01*
X310350000Y-81826401D01*
X310850000Y-81826401D01*
X310850000Y-84006799D01*
X310850001Y-84006800D01*
X313855899Y-84006800D01*
X313855900Y-84006799D01*
X313855900Y-82278575D01*
X313855899Y-82278567D01*
X313849498Y-82219028D01*
X313849496Y-82219021D01*
X313799253Y-82084312D01*
X313713089Y-81969212D01*
X313713087Y-81969210D01*
X313597987Y-81883046D01*
X313463278Y-81832803D01*
X313463271Y-81832801D01*
X313403732Y-81826400D01*
X310850001Y-81826400D01*
X310850000Y-81826401D01*
X310350000Y-81826401D01*
X310349999Y-81826400D01*
X307796267Y-81826400D01*
X307736728Y-81832801D01*
X307736721Y-81832803D01*
X307602012Y-81883046D01*
X307486912Y-81969210D01*
X307486910Y-81969212D01*
X307400746Y-82084312D01*
X307350503Y-82219021D01*
X307350501Y-82219028D01*
X307344100Y-82278567D01*
X306000000Y-82278567D01*
X306000000Y-80353140D01*
X306018954Y-80257852D01*
X306072930Y-80177070D01*
X306177070Y-80072930D01*
X306257852Y-80018954D01*
X306353140Y-80000000D01*
X322799999Y-80000000D01*
X322800000Y-80000000D01*
X323050000Y-80000000D01*
X323050000Y-78900372D01*
X323068954Y-78805084D01*
X323122930Y-78724302D01*
X323203712Y-78670326D01*
X323299000Y-78651372D01*
X323323393Y-78652570D01*
G37*
%TD.AperFunction*%
%TD*%
%TA.AperFunction,Conductor*%
%TO.N,/12V Supplies/+12V_REG*%
G36*
X283943039Y-142269685D02*
G01*
X283988794Y-142322489D01*
X284000000Y-142374000D01*
X284000000Y-153376000D01*
X283980315Y-153443039D01*
X283927511Y-153488794D01*
X283876000Y-153500000D01*
X280874000Y-153500000D01*
X280806961Y-153480315D01*
X280761206Y-153427511D01*
X280750000Y-153376000D01*
X280750000Y-142374000D01*
X280769685Y-142306961D01*
X280822489Y-142261206D01*
X280874000Y-142250000D01*
X283876000Y-142250000D01*
X283943039Y-142269685D01*
G37*
%TD.AperFunction*%
%TD*%
M02*
