M48
; DRILL file {KiCad 8.0.8} date 2025-07-01T22:14:13-0400
; FORMAT={-:-/ absolute / metric / decimal}
; #@! TF.CreationDate,2025-07-01T22:14:13-04:00
; #@! TF.GenerationSoftware,Kicad,Pcbnew,8.0.8
; #@! TF.FileFunction,Plated,1,2,PTH
FMAT,2
METRIC
; #@! TA.AperFunction,Plated,PTH,ViaDrill
T1C0.300
; #@! TA.AperFunction,Plated,PTH,ComponentDrill
T2C0.300
; #@! TA.AperFunction,Plated,PTH,ViaDrill
T3C0.400
; #@! TA.AperFunction,Plated,PTH,ViaDrill
T4C0.500
; #@! TA.AperFunction,Plated,PTH,ViaDrill
T5C0.600
; #@! TA.AperFunction,Plated,PTH,ComponentDrill
T6C0.600
; #@! TA.AperFunction,Plated,PTH,ComponentDrill
T7C0.750
; #@! TA.AperFunction,Plated,PTH,ComponentDrill
T8C0.800
; #@! TA.AperFunction,Plated,PTH,ViaDrill
T9C1.000
; #@! TA.AperFunction,Plated,PTH,ComponentDrill
T10C1.000
; #@! TA.AperFunction,Plated,PTH,ComponentDrill
T11C1.100
; #@! TA.AperFunction,Plated,PTH,ComponentDrill
T12C1.200
; #@! TA.AperFunction,Plated,PTH,ComponentDrill
T13C1.295
; #@! TA.AperFunction,Plated,PTH,ComponentDrill
T14C1.300
; #@! TA.AperFunction,Plated,PTH,ComponentDrill
T15C1.400
; #@! TA.AperFunction,Plated,PTH,ComponentDrill
T16C1.700
; #@! TA.AperFunction,Plated,PTH,ComponentDrill
T17C1.980
; #@! TA.AperFunction,Plated,PTH,ComponentDrill
T18C2.000
; #@! TA.AperFunction,Plated,PTH,ComponentDrill
T19C5.500
; #@! TA.AperFunction,Plated,PTH,ComponentDrill
T20C10.000
%
G90
G05
T1
X207.0Y-107.75
X282.34Y-155.75
X295.25Y-182.25
X295.25Y-190.5
X296.1Y-98.2
X296.1Y-106.2
X300.5Y-103.25
X302.0Y-185.0
X302.2Y-93.9
X302.5Y-190.5
X303.25Y-181.5
X303.25Y-183.5
X306.3Y-96.175
X306.3Y-98.1
X307.8Y-160.9
X311.75Y-97.475
X312.7Y-182.4
X313.0Y-183.9
X315.4Y-106.2
X316.4Y-98.1
X317.0Y-99.3
X317.25Y-95.5
X317.3Y-96.8
X317.6Y-162.3
X318.6Y-93.3
X318.9Y-98.4
X324.2Y-103.5
X330.8Y-90.8
X331.75Y-84.75
T2
X307.875Y-181.385
X307.875Y-182.675
X308.845Y-181.385
X308.845Y-182.675
T3
X189.5Y-117.0
T4
X126.25Y-160.75
X126.25Y-162.25
X127.75Y-160.75
X127.75Y-162.25
X129.25Y-78.0
X129.25Y-160.75
X129.25Y-162.25
X130.75Y-160.75
X130.75Y-162.25
X132.25Y-160.75
X132.25Y-162.25
X133.75Y-160.75
X133.75Y-162.25
X134.25Y-84.5
X171.25Y-93.0
X207.5Y-131.75
X207.5Y-133.25
X209.0Y-131.75
X209.0Y-133.25
X210.5Y-131.75
X210.5Y-133.25
X212.0Y-131.75
X212.0Y-133.25
X227.25Y-70.0
X227.25Y-71.5
X227.25Y-73.0
X227.25Y-74.5
X228.75Y-70.0
X228.75Y-71.5
X228.75Y-73.0
X228.75Y-74.5
X281.5Y-144.5
X281.5Y-146.0
X281.5Y-147.5
X281.5Y-149.0
X281.5Y-150.5
X283.25Y-144.5
X283.25Y-146.0
X283.25Y-147.5
X283.25Y-149.0
X283.25Y-150.5
T5
X282.25Y-175.75
X315.2Y-160.5
X324.25Y-77.0
X324.31Y-92.79
X328.9Y-92.8
X329.0Y-77.0
T6
X90.82Y-49.225
X90.82Y-168.834
X90.82Y-221.92
X92.018Y-46.298
X92.018Y-52.152
X92.018Y-165.907
X92.018Y-171.761
X92.018Y-218.993
X92.018Y-224.847
X94.945Y-45.1
X94.945Y-53.35
X94.945Y-164.709
X94.945Y-172.959
X94.945Y-217.795
X94.945Y-226.045
X97.872Y-46.298
X97.872Y-52.152
X97.872Y-165.907
X97.872Y-171.761
X97.872Y-218.993
X97.872Y-224.847
X99.07Y-49.225
X99.07Y-168.834
X99.07Y-221.92
X210.505Y-49.225
X210.505Y-221.92
X211.703Y-46.298
X211.703Y-52.152
X211.703Y-218.993
X211.703Y-224.847
X214.63Y-45.1
X214.63Y-53.35
X214.63Y-217.795
X214.63Y-226.045
X217.557Y-46.298
X217.557Y-52.152
X217.557Y-218.993
X217.557Y-224.847
X218.755Y-49.225
X218.755Y-221.92
X330.19Y-168.834
X331.388Y-165.907
X331.388Y-171.761
X334.315Y-45.1
X334.315Y-53.35
X334.315Y-164.709
X334.315Y-172.959
X334.315Y-217.795
X334.315Y-226.045
X337.242Y-46.298
X337.242Y-52.152
X337.242Y-165.907
X337.242Y-171.761
X337.242Y-218.993
X337.242Y-224.847
X338.44Y-49.225
X338.44Y-168.834
X338.44Y-221.92
T7
X186.64Y-70.73
X186.64Y-72.0
X186.64Y-73.27
X186.64Y-99.23
X186.64Y-100.5
X186.64Y-101.77
X292.5Y-72.46
X292.5Y-73.73
X292.5Y-75.0
T8
X97.13Y-118.0
X98.5Y-128.0
X106.0Y-130.9
X108.25Y-143.75
X109.5Y-143.75
X110.5Y-66.75
X110.5Y-71.75
X112.0Y-143.75
X112.37Y-118.0
X113.25Y-143.75
X114.38Y-87.5
X120.0Y-61.0
X120.0Y-63.5
X120.0Y-80.0
X120.0Y-82.5
X126.88Y-60.5
X129.62Y-87.5
X137.88Y-82.0
X142.12Y-60.5
X142.75Y-76.0
X147.75Y-76.0
X150.75Y-65.25
X150.75Y-70.25
X153.12Y-82.0
X162.88Y-75.5
X162.88Y-80.5
X162.88Y-85.5
X162.88Y-95.0
X163.01Y-100.25
X178.12Y-75.5
X178.12Y-80.5
X178.12Y-85.5
X178.12Y-95.0
X178.25Y-100.25
X181.38Y-144.5
X196.62Y-144.5
X208.818Y-84.0
X211.318Y-84.0
X214.0Y-121.75
X216.5Y-121.75
X251.79Y-183.21
X251.79Y-198.45
X271.81Y-69.44
X271.81Y-74.19
X271.81Y-78.94
X285.5Y-108.25
X285.5Y-123.49
X287.05Y-69.44
X287.05Y-74.19
X287.05Y-78.94
T9
X117.5Y-161.5
X117.5Y-174.75
X312.875Y-176.625
X330.8Y-62.5
X335.75Y-62.5
X335.75Y-67.2
T10
X117.632Y-122.5
X117.632Y-135.5
X122.632Y-122.5
X122.632Y-135.5
T11
X118.445Y-92.96
X118.445Y-95.5
X118.445Y-98.04
X123.555Y-68.96
X123.555Y-71.5
X123.555Y-74.04
X139.15Y-86.5
X151.85Y-86.5
X164.65Y-66.0
X164.65Y-70.5
X164.65Y-90.0
X165.15Y-105.5
X165.15Y-109.5
X165.15Y-113.5
X177.35Y-66.0
X177.35Y-70.5
X177.35Y-90.0
X177.85Y-105.5
X177.85Y-109.5
X177.85Y-113.5
X197.555Y-67.96
X197.555Y-70.5
X197.555Y-73.04
X197.555Y-97.46
X197.555Y-100.0
X197.555Y-102.54
X213.5Y-91.5
X213.5Y-93.2
X213.5Y-94.9
X213.5Y-96.6
X213.5Y-98.3
X229.5Y-215.75
X229.5Y-225.91
X234.0Y-215.67
X234.0Y-225.83
X246.79Y-183.25
X246.79Y-193.41
X261.5Y-71.5
X261.5Y-74.04
X261.5Y-76.58
X326.555Y-74.5
X326.555Y-77.04
X326.555Y-79.58
X326.555Y-90.25
X326.555Y-92.79
X326.555Y-95.33
T12
X126.255Y-107.75
X126.27Y-94.75
X156.735Y-107.75
X156.75Y-94.75
X212.9Y-144.6
X217.9Y-144.6
T13
X260.891Y-189.534
X260.891Y-201.784
X266.891Y-203.784
X272.891Y-189.534
X272.891Y-201.784
T14
X236.44Y-148.84
X236.44Y-166.94
X254.54Y-148.84
X254.54Y-160.24
T15
X122.956Y-183.342
X122.956Y-188.422
X122.956Y-191.622
X122.956Y-196.702
X135.456Y-183.342
X135.456Y-188.422
X135.456Y-191.622
X135.456Y-196.702
X147.956Y-183.342
X147.956Y-188.422
X147.956Y-191.622
X147.956Y-196.702
X152.5Y-150.0
X160.456Y-183.342
X160.456Y-188.422
X160.456Y-191.622
X160.456Y-196.702
X200.342Y-158.044
X200.342Y-170.544
X205.422Y-158.044
X205.422Y-170.544
X208.622Y-158.044
X208.622Y-170.544
X213.702Y-158.044
X213.702Y-170.544
T16
X101.092Y-67.01
X101.092Y-70.97
X101.092Y-74.93
X105.722Y-50.0
X106.605Y-173.72
X106.605Y-177.68
X106.605Y-181.64
X106.605Y-185.6
X106.605Y-189.56
X106.605Y-193.52
X106.605Y-197.48
X106.605Y-201.44
X106.605Y-205.4
X106.605Y-209.36
X106.605Y-213.32
X106.605Y-217.28
X109.682Y-50.0
X113.642Y-50.0
X117.602Y-50.0
X121.562Y-50.0
X125.522Y-50.0
X129.482Y-50.0
X133.442Y-50.0
X137.23Y-221.361
X141.19Y-221.361
X143.94Y-50.0
X145.15Y-221.361
X147.9Y-50.0
X149.11Y-221.361
X151.86Y-50.0
X153.07Y-221.361
X155.82Y-50.0
X157.03Y-221.361
X159.78Y-50.0
X160.99Y-221.361
X163.74Y-50.0
X164.95Y-221.361
X167.7Y-50.0
X168.91Y-221.361
X171.66Y-50.0
X172.87Y-221.361
X175.62Y-50.0
X179.58Y-50.0
X181.74Y-194.5
X183.54Y-50.0
X183.677Y-221.361
X185.7Y-194.5
X187.5Y-50.0
X187.637Y-221.361
X189.66Y-194.5
X191.46Y-50.0
X191.597Y-221.361
X193.62Y-194.5
X195.42Y-50.0
X195.557Y-221.361
X197.58Y-194.5
X199.38Y-50.0
X199.517Y-221.361
X201.54Y-194.5
X203.477Y-221.361
X205.5Y-194.5
X209.46Y-194.5
X213.42Y-194.5
X217.38Y-194.5
X221.34Y-194.5
X225.3Y-194.5
X240.08Y-221.361
X244.04Y-221.361
X248.0Y-221.361
X251.96Y-221.361
X255.92Y-221.361
X264.62Y-221.361
X268.58Y-221.361
X272.54Y-221.361
X276.5Y-221.361
X280.46Y-221.361
X284.42Y-221.361
X288.38Y-221.361
X292.34Y-221.361
X296.3Y-221.361
X305.04Y-221.361
X309.0Y-221.361
X312.96Y-221.361
X316.92Y-221.361
T17
X123.0Y-172.906
X123.0Y-180.526
X123.0Y-199.5
X123.0Y-207.12
X135.5Y-172.906
X135.5Y-180.526
X135.5Y-199.5
X135.5Y-207.12
X148.0Y-172.906
X148.0Y-180.526
X148.0Y-199.5
X148.0Y-207.12
X160.5Y-172.906
X160.5Y-180.526
X160.5Y-199.5
X160.5Y-207.12
X189.906Y-158.0
X189.906Y-170.5
X197.526Y-158.0
X197.526Y-170.5
X216.5Y-158.0
X216.5Y-170.5
X224.12Y-158.0
X224.12Y-170.5
X238.935Y-144.6
X238.935Y-162.7
X244.015Y-144.6
X244.015Y-162.7
X253.235Y-144.6
X258.315Y-144.6
X258.74Y-158.76
X258.74Y-163.84
T18
X145.5Y-122.5
X145.5Y-132.5
X173.0Y-122.5
X173.0Y-132.5
X242.5Y-114.0
X252.5Y-114.0
T19
X94.945Y-49.225
X94.945Y-168.834
X94.945Y-221.92
X214.63Y-49.225
X214.63Y-221.92
X334.315Y-49.225
X334.315Y-168.834
X334.315Y-221.92
T20
X329.87Y-49.225
X329.87Y-221.92
M30
